RobotoSerifMicroWide-Hairline.ufo
<glyph name="numbersign" format="2">
  <advance width="762"/>
  <unicode hex="0023"/>
  <outline>
    <contour>
      <point x="154" y="0" type="line"/>
      <point x="194" y="0" type="line"/>
      <point x="357" y="780" type="line"/>
      <point x="317" y="780" type="line"/>
    </contour>
    <contour>
      <point x="40" y="241" type="line"/>
      <point x="666" y="241" type="line"/>
      <point x="666" y="279" type="line"/>
      <point x="40" y="279" type="line"/>
    </contour>
    <contour>
      <point x="95" y="521" type="line"/>
      <point x="721" y="521" type="line"/>
      <point x="721" y="559" type="line"/>
      <point x="95" y="559" type="line"/>
    </contour>
    <contour>
      <point x="401" y="0" type="line"/>
      <point x="441" y="0" type="line"/>
      <point x="602" y="780" type="line"/>
      <point x="563" y="780" type="line"/>
    </contour>
  </outline>
</glyph>
<glyph name="period" format="2">
  <advance width="347"/>
  <unicode hex="002E"/>
  <outline>
    <contour>
      <point x="172" y="-10" type="curve" smooth="yes"/>
      <point x="217" y="-10"/>
      <point x="247" y="15"/>
      <point x="247" y="53" type="curve" smooth="yes"/>
      <point x="247" y="92"/>
      <point x="217" y="116"/>
      <point x="172" y="116" type="curve" smooth="yes"/>
      <point x="130" y="116"/>
      <point x="100" y="92"/>
      <point x="100" y="53" type="curve" smooth="yes"/>
      <point x="100" y="15"/>
      <point x="130" y="-10"/>
    </contour>
  </outline>
</glyph>
<glyph name="six" format="2">
  <advance width="594"/>
  <unicode hex="0036"/>
  <outline>
    <contour>
      <point x="476" y="699" type="line"/>
      <point x="252" y="677"/>
      <point x="127" y="574"/>
      <point x="127" y="295" type="curve" smooth="yes"/>
      <point x="127" y="105"/>
      <point x="190" y="31"/>
      <point x="313" y="31" type="curve" smooth="yes"/>
      <point x="432" y="31"/>
      <point x="479" y="128"/>
      <point x="479" y="241" type="curve" smooth="yes"/>
      <point x="479" y="339"/>
      <point x="450" y="428"/>
      <point x="338" y="428" type="curve" smooth="yes"/>
      <point x="233" y="428"/>
      <point x="190" y="373"/>
      <point x="106" y="228" type="curve"/>
      <point x="107" y="267" type="line"/>
      <point x="167" y="404"/>
      <point x="236" y="468"/>
      <point x="339" y="468" type="curve" smooth="yes"/>
      <point x="464" y="468"/>
      <point x="533" y="385"/>
      <point x="533" y="241" type="curve" smooth="yes"/>
      <point x="533" y="97"/>
      <point x="453" y="-10"/>
      <point x="312" y="-10" type="curve" smooth="yes"/>
      <point x="166" y="-10"/>
      <point x="76" y="76"/>
      <point x="76" y="295" type="curve" smooth="yes"/>
      <point x="76" y="596"/>
      <point x="210" y="711"/>
      <point x="467" y="740" type="curve"/>
    </contour>
  </outline>
</glyph>
<glyph name="question" format="2">
  <advance width="636"/>
  <unicode hex="003F"/>
  <outline>
    <contour>
      <point x="269" y="426" type="line"/>
      <point x="385" y="437"/>
      <point x="506" y="437"/>
      <point x="506" y="582" type="curve" smooth="yes"/>
      <point x="506" y="688"/>
      <point x="429" y="723"/>
      <point x="321" y="723" type="curve" smooth="yes"/>
      <point x="226" y="723"/>
      <point x="156" y="693"/>
      <point x="130" y="670" type="curve"/>
      <point x="128" y="686"/>
      <point x="131" y="701"/>
      <point x="179" y="704" type="curve"/>
      <point x="179" y="553" type="line"/>
      <point x="118" y="553" type="line"/>
      <point x="118" y="712" type="line"/>
      <point x="149" y="729"/>
      <point x="232" y="762"/>
      <point x="321" y="762" type="curve" smooth="yes"/>
      <point x="467" y="762"/>
      <point x="560" y="713"/>
      <point x="560" y="582" type="curve" smooth="yes"/>
      <point x="560" y="435"/>
      <point x="448" y="406"/>
      <point x="325" y="390" type="curve"/>
      <point x="325" y="248" type="line"/>
      <point x="269" y="248" type="line"/>
    </contour>
    <component base="period" xOffset="124" yOffset="-1"/>
  </outline>
</glyph>
<glyph name="C" format="2">
  <advance width="798"/>
  <unicode hex="0043"/>
  <anchor x="434" y="741" name="top"/>
  <anchor x="434" y="0" name="bottom"/>
  <outline>
    <contour>
      <point x="404" y="694" type="curve" smooth="yes"/>
      <point x="549" y="694"/>
      <point x="631" y="611"/>
      <point x="673" y="478" type="curve"/>
      <point x="718" y="478" type="line"/>
      <point x="718" y="720" type="line"/>
      <point x="676" y="720" type="line"/>
      <point x="666" y="500" type="line"/>
      <point x="672" y="507"/>
      <point x="676" y="515"/>
      <point x="680" y="523" type="curve"/>
      <point x="636" y="663"/>
      <point x="550" y="735"/>
      <point x="405" y="735" type="curve" smooth="yes"/>
      <point x="195" y="735"/>
      <point x="59" y="607"/>
      <point x="59" y="362" type="curve" smooth="yes"/>
      <point x="59" y="109"/>
      <point x="188" y="-25"/>
      <point x="407" y="-25" type="curve" smooth="yes"/>
      <point x="586" y="-25"/>
      <point x="680" y="57"/>
      <point x="731" y="192" type="curve"/>
      <point x="695" y="208" type="line"/>
      <point x="655" y="103"/>
      <point x="590" y="16"/>
      <point x="405" y="16" type="curve" smooth="yes"/>
      <point x="207" y="16"/>
      <point x="114" y="133"/>
      <point x="114" y="362" type="curve" smooth="yes"/>
      <point x="114" y="590"/>
      <point x="216" y="694"/>
    </contour>
  </outline>
</glyph>
<glyph name="E" format="2">
  <advance width="709"/>
  <unicode hex="0045"/>
  <anchor x="444" y="741" name="top"/>
  <anchor x="516" y="0" name="right"/>
  <anchor x="444" y="0" name="bottom"/>
  <outline>
    <contour>
      <point x="644" y="215" type="line"/>
      <point x="596" y="215" type="line"/>
      <point x="581" y="84" type="line" smooth="yes"/>
      <point x="576" y="48"/>
      <point x="539" y="39"/>
      <point x="448" y="39" type="curve" smooth="yes"/>
      <point x="207" y="39" type="line"/>
      <point x="207" y="671" type="line"/>
      <point x="424" y="671" type="line" smooth="yes"/>
      <point x="515" y="671"/>
      <point x="551" y="662"/>
      <point x="556" y="626" type="curve" smooth="yes"/>
      <point x="570" y="520" type="line"/>
      <point x="616" y="520" type="line"/>
      <point x="616" y="710" type="line"/>
      <point x="54" y="710" type="line"/>
      <point x="54" y="666" type="line"/>
      <point x="66" y="666" type="line" smooth="yes"/>
      <point x="118" y="666"/>
      <point x="156" y="659"/>
      <point x="156" y="630" type="curve" smooth="yes"/>
      <point x="156" y="80" type="line" smooth="yes"/>
      <point x="156" y="51"/>
      <point x="118" y="44"/>
      <point x="66" y="44" type="curve" smooth="yes"/>
      <point x="54" y="44" type="line"/>
      <point x="54" y="0" type="line"/>
      <point x="644" y="0" type="line"/>
    </contour>
    <contour>
      <point x="186" y="381" type="curve"/>
      <point x="186" y="350" type="line"/>
      <point x="300" y="347"/>
      <point x="414" y="344"/>
      <point x="527" y="341" type="curve"/>
      <point x="527" y="392" type="line"/>
      <point x="414" y="388"/>
      <point x="300" y="385"/>
    </contour>
  </outline>
</glyph>
<glyph name="F" format="2">
  <advance width="687"/>
  <unicode hex="0046"/>
  <outline>
    <contour>
      <point x="207" y="671" type="line"/>
      <point x="424" y="671" type="line" smooth="yes"/>
      <point x="515" y="671"/>
      <point x="551" y="662"/>
      <point x="556" y="626" type="curve" smooth="yes"/>
      <point x="570" y="521" type="line"/>
      <point x="616" y="521" type="line"/>
      <point x="616" y="710" type="line"/>
      <point x="54" y="710" type="line"/>
      <point x="54" y="666" type="line"/>
      <point x="66" y="666" type="line" smooth="yes"/>
      <point x="118" y="666"/>
      <point x="156" y="659"/>
      <point x="156" y="630" type="curve" smooth="yes"/>
      <point x="156" y="80" type="line" smooth="yes"/>
      <point x="156" y="51"/>
      <point x="118" y="44"/>
      <point x="66" y="44" type="curve" smooth="yes"/>
      <point x="54" y="44" type="line"/>
      <point x="54" y="0" type="line"/>
      <point x="329" y="0" type="line"/>
      <point x="329" y="45" type="line"/>
      <point x="307" y="45" type="line" smooth="yes"/>
      <point x="257" y="45"/>
      <point x="207" y="48"/>
      <point x="207" y="55" type="curve" smooth="yes"/>
    </contour>
    <contour>
      <point x="189" y="380" type="curve"/>
      <point x="189" y="349" type="line"/>
      <point x="302" y="346"/>
      <point x="414" y="343"/>
      <point x="527" y="340" type="curve"/>
      <point x="527" y="391" type="line"/>
      <point x="414" y="388"/>
      <point x="302" y="384"/>
    </contour>
  </outline>
</glyph>
<glyph name="K" format="2">
  <advance width="802"/>
  <unicode hex="004B"/>
  <anchor x="427" y="741" name="top"/>
  <anchor x="427" y="0" name="bottom"/>
  <outline>
    <contour>
      <point x="54" y="0" type="line"/>
      <point x="308" y="0" type="line"/>
      <point x="308" y="44" type="line"/>
      <point x="298" y="44" type="line" smooth="yes"/>
      <point x="258" y="44"/>
      <point x="206" y="47"/>
      <point x="206" y="54" type="curve" smooth="yes"/>
      <point x="206" y="656" type="line" smooth="yes"/>
      <point x="206" y="663"/>
      <point x="258" y="666"/>
      <point x="298" y="666" type="curve" smooth="yes"/>
      <point x="308" y="666" type="line"/>
      <point x="308" y="710" type="line"/>
      <point x="54" y="710" type="line"/>
      <point x="54" y="666" type="line"/>
      <point x="66" y="666" type="line" smooth="yes"/>
      <point x="118" y="666"/>
      <point x="156" y="659"/>
      <point x="156" y="630" type="curve" smooth="yes"/>
      <point x="156" y="80" type="line" smooth="yes"/>
      <point x="156" y="51"/>
      <point x="118" y="44"/>
      <point x="66" y="44" type="curve" smooth="yes"/>
      <point x="54" y="44" type="line"/>
    </contour>
    <contour>
      <point x="487" y="0" type="line"/>
      <point x="768" y="0" type="line"/>
      <point x="768" y="44" type="line"/>
      <point x="749" y="44" type="line" smooth="yes"/>
      <point x="706" y="44"/>
      <point x="681" y="46"/>
      <point x="655" y="71" type="curve" smooth="yes"/>
      <point x="308" y="390" type="line"/>
      <point x="312" y="347" type="line"/>
      <point x="625" y="637" type="line" smooth="yes"/>
      <point x="648" y="658"/>
      <point x="670" y="666"/>
      <point x="704" y="666" type="curve" smooth="yes"/>
      <point x="730" y="666" type="line"/>
      <point x="730" y="710" type="line"/>
      <point x="487" y="710" type="line"/>
      <point x="487" y="666" type="line"/>
      <point x="497" y="666" type="line" smooth="yes"/>
      <point x="541" y="666"/>
      <point x="585" y="662"/>
      <point x="585" y="655" type="curve"/>
      <point x="273" y="364" type="line"/>
      <point x="273" y="359" type="line"/>
      <point x="599" y="54" type="line"/>
      <point x="599" y="47"/>
      <point x="552" y="44"/>
      <point x="509" y="44" type="curve" smooth="yes"/>
      <point x="487" y="44" type="line"/>
    </contour>
  </outline>
</glyph>
<glyph name="Q" format="2">
  <advance width="824"/>
  <unicode hex="0051"/>
  <outline>
    <contour>
      <point x="402" y="-3" type="line"/>
      <point x="402" y="-161"/>
      <point x="453" y="-239"/>
      <point x="624" y="-239" type="curve" smooth="yes"/>
      <point x="684" y="-239"/>
      <point x="740" y="-231"/>
      <point x="782" y="-220" type="curve"/>
      <point x="782" y="-175" type="line"/>
      <point x="735" y="-188"/>
      <point x="681" y="-198"/>
      <point x="624" y="-198" type="curve" smooth="yes"/>
      <point x="489" y="-198"/>
      <point x="444" y="-129"/>
      <point x="441" y="10" type="curve"/>
    </contour>
    <contour>
      <point x="412" y="-25" type="curve" smooth="yes"/>
      <point x="621" y="-25"/>
      <point x="765" y="97"/>
      <point x="765" y="355" type="curve" smooth="yes"/>
      <point x="765" y="612"/>
      <point x="621" y="735"/>
      <point x="412" y="735" type="curve" smooth="yes"/>
      <point x="202" y="735"/>
      <point x="59" y="612"/>
      <point x="59" y="355" type="curve" smooth="yes"/>
      <point x="59" y="97"/>
      <point x="202" y="-25"/>
    </contour>
    <contour>
      <point x="412" y="16" type="curve" smooth="yes"/>
      <point x="222" y="16"/>
      <point x="114" y="119"/>
      <point x="114" y="355" type="curve" smooth="yes"/>
      <point x="114" y="592"/>
      <point x="222" y="694"/>
      <point x="412" y="694" type="curve" smooth="yes"/>
      <point x="602" y="694"/>
      <point x="710" y="592"/>
      <point x="710" y="355" type="curve" smooth="yes"/>
      <point x="711" y="119"/>
      <point x="602" y="16"/>
    </contour>
  </outline>
</glyph>
<glyph name="R" format="2">
  <advance width="764"/>
  <unicode hex="0052"/>
  <anchor x="446" y="741" name="top"/>
  <anchor x="446" y="0" name="bottom"/>
  <outline>
    <contour>
      <point x="409" y="328" type="line"/>
      <point x="449" y="356" type="line"/>
      <point x="600" y="110" type="line" smooth="yes"/>
      <point x="632" y="59"/>
      <point x="670" y="46"/>
      <point x="719" y="46" type="curve" smooth="yes"/>
      <point x="735" y="46" type="line"/>
      <point x="735" y="0" type="line"/>
      <point x="608" y="0" type="line"/>
    </contour>
    <contour>
      <point x="206" y="54" type="line" smooth="yes"/>
      <point x="206" y="47"/>
      <point x="256" y="44"/>
      <point x="306" y="44" type="curve" smooth="yes"/>
      <point x="324" y="44" type="line"/>
      <point x="324" y="0" type="line"/>
      <point x="54" y="0" type="line"/>
      <point x="54" y="44" type="line"/>
      <point x="66" y="44" type="line" smooth="yes"/>
      <point x="118" y="44"/>
      <point x="156" y="51"/>
      <point x="156" y="80" type="curve" smooth="yes"/>
      <point x="156" y="630" type="line" smooth="yes"/>
      <point x="156" y="659"/>
      <point x="118" y="666"/>
      <point x="66" y="666" type="curve" smooth="yes"/>
      <point x="54" y="666" type="line"/>
      <point x="54" y="710" type="line"/>
      <point x="397" y="710" type="line" smooth="yes"/>
      <point x="549" y="710"/>
      <point x="636" y="651"/>
      <point x="636" y="522" type="curve" smooth="yes"/>
      <point x="636" y="398"/>
      <point x="558" y="330"/>
      <point x="440" y="319" type="curve"/>
      <point x="433" y="313"/>
      <point x="443" y="313"/>
      <point x="442" y="313" type="curve"/>
      <point x="193" y="313" type="line"/>
      <point x="181" y="350" type="line"/>
      <point x="398" y="350" type="line" smooth="yes"/>
      <point x="529" y="350"/>
      <point x="581" y="423"/>
      <point x="581" y="515" type="curve" smooth="yes"/>
      <point x="581" y="623"/>
      <point x="524" y="673"/>
      <point x="395" y="673" type="curve" smooth="yes"/>
      <point x="206" y="673" type="line"/>
    </contour>
  </outline>
</glyph>
<glyph name="U" format="2">
  <advance width="858"/>
  <unicode hex="0055"/>
  <anchor x="441" y="741" name="top"/>
  <anchor x="499" y="0" name="right"/>
  <anchor x="441" y="0" name="bottom"/>
  <outline>
    <contour>
      <point x="207" y="256" type="curve" smooth="yes"/>
      <point x="207" y="656" type="line" smooth="yes"/>
      <point x="207" y="663"/>
      <point x="258" y="666"/>
      <point x="299" y="666" type="curve" smooth="yes"/>
      <point x="308" y="666" type="line"/>
      <point x="308" y="710" type="line"/>
      <point x="55" y="710" type="line"/>
      <point x="55" y="666" type="line"/>
      <point x="67" y="666" type="line" smooth="yes"/>
      <point x="119" y="666"/>
      <point x="157" y="659"/>
      <point x="157" y="630" type="curve" smooth="yes"/>
      <point x="157" y="256" type="line" smooth="yes"/>
      <point x="157" y="53"/>
      <point x="272" y="-25"/>
      <point x="429" y="-25" type="curve" smooth="yes"/>
      <point x="581" y="-25"/>
      <point x="701" y="54"/>
      <point x="701" y="256" type="curve" smooth="yes"/>
      <point x="701" y="621" type="line" smooth="yes"/>
      <point x="701" y="655"/>
      <point x="740" y="666"/>
      <point x="792" y="666" type="curve" smooth="yes"/>
      <point x="803" y="666" type="line"/>
      <point x="803" y="710" type="line"/>
      <point x="558" y="710" type="line"/>
      <point x="558" y="666" type="line"/>
      <point x="568" y="666" type="line" smooth="yes"/>
      <point x="608" y="666"/>
      <point x="660" y="659"/>
      <point x="660" y="647" type="curve" smooth="yes"/>
      <point x="660" y="256" type="line" smooth="yes"/>
      <point x="660" y="78"/>
      <point x="565" y="15"/>
      <point x="435" y="15" type="curve" smooth="yes"/>
      <point x="307" y="15"/>
      <point x="207" y="75"/>
    </contour>
  </outline>
</glyph>
<glyph name="g" format="2">
  <advance width="723"/>
  <unicode hex="0067"/>
  <anchor x="348" y="545" name="top"/>
  <outline>
    <contour>
      <point x="685" y="552" type="curve"/>
      <point x="685" y="609" type="line"/>
      <point x="575" y="617"/>
      <point x="525" y="581"/>
      <point x="500" y="499" type="curve"/>
      <point x="513" y="478" type="line"/>
      <point x="547" y="524"/>
      <point x="578" y="552"/>
    </contour>
    <contour>
      <point x="336" y="180" type="curve" smooth="yes"/>
      <point x="466" y="180"/>
      <point x="555" y="257"/>
      <point x="555" y="377" type="curve" smooth="yes"/>
      <point x="555" y="495"/>
      <point x="465" y="576"/>
      <point x="336" y="576" type="curve" smooth="yes"/>
      <point x="208" y="576"/>
      <point x="118" y="495"/>
      <point x="118" y="377" type="curve" smooth="yes"/>
      <point x="118" y="257"/>
      <point x="207" y="180"/>
    </contour>
    <contour>
      <point x="336" y="218" type="curve" smooth="yes"/>
      <point x="229" y="218"/>
      <point x="171" y="272"/>
      <point x="171" y="377" type="curve" smooth="yes"/>
      <point x="171" y="482"/>
      <point x="230" y="538"/>
      <point x="336" y="538" type="curve" smooth="yes"/>
      <point x="445" y="538"/>
      <point x="503" y="482"/>
      <point x="503" y="377" type="curve" smooth="yes"/>
      <point x="503" y="272"/>
      <point x="445" y="218"/>
    </contour>
    <contour>
      <point x="245" y="-252" type="curve" smooth="yes"/>
      <point x="414" y="-252" type="line" smooth="yes"/>
      <point x="544" y="-252"/>
      <point x="647" y="-187"/>
      <point x="647" y="-75" type="curve" smooth="yes"/>
      <point x="647" y="14"/>
      <point x="590" y="49"/>
      <point x="499" y="49" type="curve" smooth="yes"/>
      <point x="212" y="49" type="line" smooth="yes"/>
      <point x="166" y="49"/>
      <point x="145" y="70"/>
      <point x="145" y="103" type="curve" smooth="yes"/>
      <point x="145" y="155"/>
      <point x="177" y="173"/>
      <point x="236" y="207" type="curve"/>
      <point x="219" y="230" type="line"/>
      <point x="146" y="192"/>
      <point x="93" y="161"/>
      <point x="93" y="95" type="curve" smooth="yes"/>
      <point x="93" y="38"/>
      <point x="135" y="16"/>
      <point x="167" y="7" type="curve"/>
      <point x="164" y="3" type="line"/>
      <point x="499" y="3" type="line" smooth="yes"/>
      <point x="568" y="3"/>
      <point x="595" y="-25"/>
      <point x="595" y="-77" type="curve" smooth="yes"/>
      <point x="595" y="-170"/>
      <point x="539" y="-215"/>
      <point x="414" y="-215" type="curve" smooth="yes"/>
      <point x="244" y="-215" type="line" smooth="yes"/>
      <point x="144" y="-215"/>
      <point x="108" y="-179"/>
      <point x="108" y="-125" type="curve" smooth="yes"/>
      <point x="108" y="-66"/>
      <point x="135" y="-38"/>
      <point x="229" y="10" type="curve"/>
      <point x="205" y="23" type="line"/>
      <point x="102" y="-24"/>
      <point x="56" y="-61"/>
      <point x="56" y="-133" type="curve" smooth="yes"/>
      <point x="56" y="-203"/>
      <point x="104" y="-252"/>
    </contour>
  </outline>
</glyph>
<glyph name="i" format="2">
  <advance width="349"/>
  <unicode hex="0069"/>
  <anchor x="197" y="551" name="top"/>
  <anchor x="251" y="-10" name="right"/>
  <anchor x="197" y="-10" name="bottom"/>
  <outline>
    <contour>
      <point x="164" y="699" type="curve" smooth="yes"/>
      <point x="196" y="699"/>
      <point x="222" y="712"/>
      <point x="222" y="751" type="curve" smooth="yes"/>
      <point x="222" y="790"/>
      <point x="196" y="804"/>
      <point x="164" y="804" type="curve" smooth="yes"/>
      <point x="130" y="804"/>
      <point x="106" y="790"/>
      <point x="106" y="751" type="curve" smooth="yes"/>
      <point x="106" y="712"/>
      <point x="130" y="699"/>
    </contour>
    <contour>
      <point x="205" y="565" type="line"/>
      <point x="58" y="565" type="line"/>
      <point x="58" y="521" type="line"/>
      <point x="69" y="519" type="line" smooth="yes"/>
      <point x="126" y="508"/>
      <point x="156" y="503"/>
      <point x="156" y="474" type="curve" smooth="yes"/>
      <point x="156" y="116" type="line" smooth="yes"/>
      <point x="156" y="54"/>
      <point x="123" y="37"/>
      <point x="64" y="37" type="curve" smooth="yes"/>
      <point x="58" y="37" type="line"/>
      <point x="58" y="0" type="line"/>
      <point x="301" y="0" type="line"/>
      <point x="301" y="37" type="line"/>
      <point x="297" y="37" type="line" smooth="yes"/>
      <point x="238" y="37"/>
      <point x="205" y="54"/>
      <point x="205" y="116" type="curve" smooth="yes"/>
    </contour>
  </outline>
</glyph>
<glyph name="yen" format="2">
  <advance width="594"/>
  <unicode hex="00A5"/>
  <outline>
    <contour>
      <point x="73" y="364" type="line"/>
      <point x="73" y="329" type="line"/>
      <point x="529" y="329" type="line"/>
      <point x="529" y="364" type="line"/>
    </contour>
    <contour>
      <point x="73" y="211" type="line"/>
      <point x="73" y="176" type="line"/>
      <point x="529" y="176" type="line"/>
      <point x="529" y="211" type="line"/>
    </contour>
    <contour>
      <point x="278" y="375" type="line"/>
      <point x="278" y="72" type="line" smooth="yes"/>
      <point x="278" y="43"/>
      <point x="238" y="36"/>
      <point x="184" y="36" type="curve" smooth="yes"/>
      <point x="160" y="36" type="line"/>
      <point x="160" y="0" type="line"/>
      <point x="442" y="0" type="line"/>
      <point x="442" y="36" type="line"/>
      <point x="418" y="36" type="line" smooth="yes"/>
      <point x="364" y="36"/>
      <point x="324" y="43"/>
      <point x="324" y="72" type="curve" smooth="yes"/>
      <point x="324" y="375" type="line"/>
    </contour>
    <contour>
      <point x="320" y="325" type="line"/>
      <point x="486" y="627" type="line" smooth="yes"/>
      <point x="504" y="660"/>
      <point x="526" y="674"/>
      <point x="553" y="674" type="curve" smooth="yes"/>
      <point x="562" y="674" type="line"/>
      <point x="562" y="710" type="line"/>
      <point x="382" y="710" type="line"/>
      <point x="382" y="674" type="line"/>
      <point x="388" y="674" type="line" smooth="yes"/>
      <point x="420" y="674"/>
      <point x="453" y="664"/>
      <point x="453" y="651" type="curve"/>
      <point x="300" y="363" type="line"/>
      <point x="308" y="372" type="line"/>
      <point x="146" y="663" type="line"/>
      <point x="146" y="670"/>
      <point x="174" y="674"/>
      <point x="206" y="674" type="curve" smooth="yes"/>
      <point x="219" y="674" type="line"/>
      <point x="219" y="710" type="line"/>
      <point x="32" y="710" type="line"/>
      <point x="32" y="674" type="line"/>
      <point x="40" y="674" type="line" smooth="yes"/>
      <point x="70" y="674"/>
      <point x="87" y="669"/>
      <point x="104" y="640" type="curve" smooth="yes"/>
      <point x="282" y="326" type="line"/>
    </contour>
  </outline>
</glyph>
<glyph name="acute" format="2">
  <advance width="530"/>
  <unicode hex="00B4"/>
  <anchor x="259" y="633" name="_top"/>
  <outline>
    <contour>
      <point x="301" y="793" type="curve" smooth="yes"/>
      <point x="226" y="679" type="line"/>
      <point x="226" y="661" type="line"/>
      <point x="248" y="661" type="line"/>
      <point x="364" y="760" type="line" smooth="yes"/>
      <point x="392" y="784"/>
      <point x="412" y="799"/>
      <point x="412" y="825" type="curve" smooth="yes"/>
      <point x="412" y="840"/>
      <point x="397" y="855"/>
      <point x="370" y="855" type="curve" smooth="yes"/>
      <point x="338" y="855"/>
      <point x="324" y="828"/>
    </contour>
  </outline>
</glyph>
<glyph name="paragraph" format="2">
  <advance width="669"/>
  <unicode hex="00B6"/>
  <outline>
    <contour>
      <point x="334" y="0" type="line"/>
      <point x="289" y="0" type="line"/>
      <point x="289" y="331" type="line"/>
      <point x="283" y="331" type="line" smooth="yes"/>
      <point x="163" y="331"/>
      <point x="75" y="414"/>
      <point x="75" y="526" type="curve" smooth="yes"/>
      <point x="75" y="636"/>
      <point x="159" y="710"/>
      <point x="278" y="710" type="curve" smooth="yes"/>
      <point x="334" y="710" type="line"/>
    </contour>
    <contour>
      <point x="511" y="710" type="line"/>
      <point x="511" y="674" type="line"/>
      <point x="302" y="674" type="line"/>
      <point x="302" y="710" type="line"/>
    </contour>
    <contour>
      <point x="525" y="0" type="line"/>
      <point x="480" y="0" type="line"/>
      <point x="480" y="710" type="line"/>
      <point x="627" y="710" type="line"/>
      <point x="627" y="674" type="line"/>
      <point x="615" y="674" type="line" smooth="yes"/>
      <point x="563" y="674"/>
      <point x="525" y="667"/>
      <point x="525" y="638" type="curve" smooth="yes"/>
    </contour>
  </outline>
</glyph>
<glyph name="ordmasculine" format="2">
  <advance width="559"/>
  <unicode hex="00BA"/>
  <outline>
    <contour>
      <point x="280" y="730" type="curve" smooth="yes"/>
      <point x="155" y="730"/>
      <point x="74" y="650"/>
      <point x="74" y="518" type="curve" smooth="yes"/>
      <point x="74" y="386"/>
      <point x="155" y="308"/>
      <point x="280" y="308" type="curve" smooth="yes"/>
      <point x="405" y="308"/>
      <point x="485" y="386"/>
      <point x="485" y="518" type="curve" smooth="yes"/>
      <point x="485" y="650"/>
      <point x="405" y="730"/>
    </contour>
    <contour>
      <point x="280" y="344" type="curve" smooth="yes"/>
      <point x="177" y="344"/>
      <point x="129" y="397"/>
      <point x="129" y="518" type="curve" smooth="yes"/>
      <point x="129" y="640"/>
      <point x="177" y="694"/>
      <point x="280" y="694" type="curve" smooth="yes"/>
      <point x="382" y="694"/>
      <point x="430" y="640"/>
      <point x="430" y="518" type="curve" smooth="yes"/>
      <point x="430" y="397"/>
      <point x="382" y="344"/>
    </contour>
  </outline>
</glyph>
<glyph name="Eth" format="2">
  <advance width="800"/>
  <unicode hex="00D0"/>
  <outline>
    <contour>
      <point x="55" y="381" type="line"/>
      <point x="55" y="342" type="line"/>
      <point x="429" y="342" type="line"/>
      <point x="429" y="381" type="line"/>
    </contour>
    <component base="D"/>
  </outline>
</glyph>
<glyph name="germandbls" format="2">
  <advance width="699"/>
  <unicode hex="00DF"/>
  <outline>
    <contour>
      <point x="51" y="552" type="line"/>
      <point x="51" y="516" type="line"/>
      <point x="211" y="516" type="line"/>
      <point x="211" y="552" type="line"/>
    </contour>
    <contour>
      <point x="379" y="436" type="line"/>
      <point x="493" y="439"/>
      <point x="594" y="487"/>
      <point x="594" y="624" type="curve" smooth="yes"/>
      <point x="594" y="727"/>
      <point x="513" y="790"/>
      <point x="386" y="790" type="curve" smooth="yes"/>
      <point x="270" y="790"/>
      <point x="174" y="748"/>
      <point x="174" y="609" type="curve" smooth="yes"/>
      <point x="174" y="113" type="line" smooth="yes"/>
      <point x="174" y="53"/>
      <point x="139" y="37"/>
      <point x="76" y="37" type="curve" smooth="yes"/>
      <point x="51" y="37" type="line"/>
      <point x="51" y="0" type="line"/>
      <point x="223" y="0" type="line"/>
      <point x="223" y="609" type="line" smooth="yes"/>
      <point x="223" y="713"/>
      <point x="276" y="752"/>
      <point x="386" y="752" type="curve" smooth="yes"/>
      <point x="484" y="752"/>
      <point x="545" y="707"/>
      <point x="545" y="620" type="curve" smooth="yes"/>
      <point x="545" y="481"/>
      <point x="458" y="460"/>
      <point x="360" y="454" type="curve"/>
      <point x="360" y="416" type="line"/>
      <point x="362" y="416" type="line" smooth="yes"/>
      <point x="495" y="416"/>
      <point x="587" y="353"/>
      <point x="587" y="201" type="curve" smooth="yes"/>
      <point x="587" y="84"/>
      <point x="532" y="27"/>
      <point x="444" y="27" type="curve" smooth="yes"/>
      <point x="400" y="27"/>
      <point x="372" y="39"/>
      <point x="360" y="42" type="curve"/>
      <point x="360" y="3" type="line"/>
      <point x="379" y="-4"/>
      <point x="402" y="-10"/>
      <point x="447" y="-10" type="curve" smooth="yes"/>
      <point x="538" y="-10"/>
      <point x="642" y="40"/>
      <point x="642" y="207" type="curve" smooth="yes"/>
      <point x="642" y="361"/>
      <point x="542" y="427"/>
      <point x="399" y="438" type="curve"/>
      <point x="421" y="430" type="line"/>
      <point x="421" y="444" type="line"/>
    </contour>
  </outline>
</glyph>
<glyph name="eth" format="2">
  <advance width="656"/>
  <unicode hex="00F0"/>
  <outline>
    <contour>
      <point x="549" y="432" type="line"/>
      <point x="509" y="502"/>
      <point x="445" y="554"/>
      <point x="330" y="554" type="curve" smooth="yes"/>
      <point x="171" y="554"/>
      <point x="55" y="450"/>
      <point x="55" y="271" type="curve" smooth="yes"/>
      <point x="55" y="88"/>
      <point x="158" y="-13"/>
      <point x="327" y="-13" type="curve" smooth="yes"/>
      <point x="494" y="-13"/>
      <point x="598" y="96"/>
      <point x="598" y="333" type="curve" smooth="yes"/>
      <point x="598" y="655"/>
      <point x="472" y="736"/>
      <point x="222" y="813" type="curve"/>
      <point x="201" y="778" type="line"/>
      <point x="456" y="699"/>
      <point x="543" y="621"/>
      <point x="543" y="333" type="curve" smooth="yes"/>
      <point x="543" y="111"/>
      <point x="475" y="25"/>
      <point x="327" y="25" type="curve" smooth="yes"/>
      <point x="176" y="25"/>
      <point x="111" y="119"/>
      <point x="111" y="271" type="curve" smooth="yes"/>
      <point x="111" y="431"/>
      <point x="180" y="516"/>
      <point x="330" y="516" type="curve" smooth="yes"/>
      <point x="454" y="516"/>
      <point x="515" y="440"/>
      <point x="562" y="379" type="curve"/>
    </contour>
    <contour>
      <point x="155" y="622" type="line"/>
      <point x="168" y="589" type="line"/>
      <point x="607" y="724" type="line"/>
      <point x="594" y="756" type="line"/>
    </contour>
  </outline>
</glyph>
<glyph name="oslash" format="2">
  <advance width="653"/>
  <unicode hex="00F8"/>
  <anchor x="347" y="551" name="top"/>
  <outline>
    <contour>
      <point x="-22" y="0" type="line"/>
      <point x="36" y="0" type="line"/>
      <point x="674" y="562" type="line"/>
      <point x="616" y="562" type="line"/>
    </contour>
    <contour>
      <point x="327" y="-13" type="curve" smooth="yes"/>
      <point x="500" y="-13"/>
      <point x="598" y="95"/>
      <point x="598" y="281" type="curve" smooth="yes"/>
      <point x="598" y="473"/>
      <point x="500" y="575"/>
      <point x="327" y="575" type="curve" smooth="yes"/>
      <point x="154" y="575"/>
      <point x="55" y="467"/>
      <point x="55" y="281" type="curve" smooth="yes"/>
      <point x="55" y="89"/>
      <point x="154" y="-13"/>
    </contour>
    <contour>
      <point x="327" y="28" type="curve" smooth="yes"/>
      <point x="172" y="28"/>
      <point x="111" y="94"/>
      <point x="111" y="281" type="curve" smooth="yes"/>
      <point x="111" y="448"/>
      <point x="178" y="534"/>
      <point x="327" y="534" type="curve" smooth="yes"/>
      <point x="481" y="534"/>
      <point x="543" y="455"/>
      <point x="543" y="281" type="curve" smooth="yes"/>
      <point x="543" y="104"/>
      <point x="475" y="28"/>
    </contour>
  </outline>
</glyph>
<glyph name="Aogonek" format="2">
  <advance width="745"/>
  <unicode hex="0104"/>
  <outline>
    <contour>
      <point x="207" y="289" type="line"/>
      <point x="191" y="251" type="line"/>
      <point x="549" y="251" type="line"/>
      <point x="530" y="289" type="line"/>
    </contour>
    <contour>
      <point x="642" y="39" type="line"/>
      <point x="478" y="-63"/>
      <point x="437" y="-95"/>
      <point x="437" y="-157" type="curve" smooth="yes"/>
      <point x="437" y="-216"/>
      <point x="485" y="-252"/>
      <point x="556" y="-252" type="curve" smooth="yes"/>
      <point x="616" y="-252"/>
      <point x="660" y="-223"/>
      <point x="696" y="-185" type="curve"/>
      <point x="670" y="-161" type="line"/>
      <point x="650" y="-181"/>
      <point x="617" y="-217"/>
      <point x="560" y="-217" type="curve" smooth="yes"/>
      <point x="517" y="-217"/>
      <point x="494" y="-195"/>
      <point x="494" y="-158" type="curve" smooth="yes"/>
      <point x="494" y="-87"/>
      <point x="559" y="-55"/>
      <point x="663" y="12" type="curve"/>
    </contour>
    <contour>
      <point x="727" y="0" type="line"/>
      <point x="727" y="44" type="line"/>
      <point x="721" y="44" type="line" smooth="yes"/>
      <point x="677" y="44"/>
      <point x="649" y="55"/>
      <point x="630" y="108" type="curve" smooth="yes"/>
      <point x="413" y="722" type="line"/>
      <point x="330" y="722" type="line"/>
      <point x="115" y="108" type="line" smooth="yes"/>
      <point x="96" y="55"/>
      <point x="67" y="44"/>
      <point x="24" y="44" type="curve" smooth="yes"/>
      <point x="18" y="44" type="line"/>
      <point x="18" y="0" type="line"/>
      <point x="255" y="0" type="line"/>
      <point x="255" y="44" type="line"/>
      <point x="244" y="44" type="line" smooth="yes"/>
      <point x="185" y="44"/>
      <point x="149" y="54"/>
      <point x="149" y="67" type="curve"/>
      <point x="376" y="728" type="line"/>
      <point x="365" y="722" type="line"/>
      <point x="616" y="0" type="line"/>
    </contour>
  </outline>
</glyph>
<glyph name="oe" format="2">
  <advance width="1097"/>
  <unicode hex="0153"/>
  <outline>
    <contour>
      <point x="327" y="-13" type="curve" smooth="yes"/>
      <point x="499" y="-13"/>
      <point x="587" y="99"/>
      <point x="587" y="281" type="curve" smooth="yes"/>
      <point x="587" y="458"/>
      <point x="504" y="575"/>
      <point x="327" y="575" type="curve" smooth="yes"/>
      <point x="154" y="575"/>
      <point x="55" y="467"/>
      <point x="55" y="281" type="curve" smooth="yes"/>
      <point x="55" y="95"/>
      <point x="154" y="-13"/>
    </contour>
    <contour>
      <point x="327" y="28" type="curve" smooth="yes"/>
      <point x="178" y="28"/>
      <point x="111" y="104"/>
      <point x="111" y="281" type="curve" smooth="yes"/>
      <point x="111" y="448"/>
      <point x="178" y="534"/>
      <point x="327" y="534" type="curve" smooth="yes"/>
      <point x="475" y="534"/>
      <point x="543" y="448"/>
      <point x="543" y="281" type="curve" smooth="yes"/>
      <point x="543" y="104"/>
      <point x="475" y="28"/>
    </contour>
    <contour>
      <point x="815" y="-13" type="curve"/>
      <point x="923" y="-13"/>
      <point x="995" y="25"/>
      <point x="1041" y="99" type="curve"/>
      <point x="1005" y="118" type="line"/>
      <point x="966" y="65"/>
      <point x="925" y="28"/>
      <point x="814" y="28" type="curve"/>
      <point x="687" y="28"/>
      <point x="596" y="108"/>
      <point x="596" y="276" type="curve" smooth="yes"/>
      <point x="596" y="441"/>
      <point x="669" y="534"/>
      <point x="801" y="534" type="curve" smooth="yes"/>
      <point x="933" y="534"/>
      <point x="978" y="474"/>
      <point x="982" y="293" type="curve"/>
      <point x="998" y="305" type="line"/>
      <point x="580" y="305" type="line"/>
      <point x="580" y="271" type="line"/>
      <point x="1036" y="271" type="line"/>
      <point x="1038" y="467"/>
      <point x="969" y="575"/>
      <point x="801" y="575" type="curve" smooth="yes"/>
      <point x="639" y="575"/>
      <point x="551" y="444"/>
      <point x="551" y="276" type="curve" smooth="yes"/>
      <point x="551" y="86"/>
      <point x="658" y="-13"/>
    </contour>
  </outline>
</glyph>
<glyph name="dotaccent" format="2">
  <advance width="530"/>
  <unicode hex="02D9"/>
  <anchor x="265" y="526" name="_top"/>
  <outline>
    <contour>
      <point x="265" y="699" type="curve" smooth="yes"/>
      <point x="297" y="699"/>
      <point x="323" y="712"/>
      <point x="323" y="751" type="curve" smooth="yes"/>
      <point x="323" y="790"/>
      <point x="297" y="804"/>
      <point x="265" y="804" type="curve" smooth="yes"/>
      <point x="231" y="804"/>
      <point x="207" y="790"/>
      <point x="207" y="751" type="curve" smooth="yes"/>
      <point x="207" y="712"/>
      <point x="231" y="699"/>
    </contour>
  </outline>
</glyph>
<glyph name="naira" format="2">
  <advance width="594"/>
  <unicode hex="20A6"/>
  <outline>
    <contour>
      <point x="43" y="0" type="line"/>
      <point x="234" y="0" type="line"/>
      <point x="234" y="36" type="line"/>
      <point x="219" y="36" type="line" smooth="yes"/>
      <point x="187" y="36"/>
      <point x="164" y="42"/>
      <point x="164" y="49" type="curve" smooth="yes"/>
      <point x="164" y="696" type="line"/>
      <point x="159" y="698" type="line"/>
      <point x="404" y="0" type="line"/>
      <point x="468" y="0" type="line"/>
      <point x="468" y="633" type="line" smooth="yes"/>
      <point x="468" y="662"/>
      <point x="494" y="674"/>
      <point x="529" y="674" type="curve" smooth="yes"/>
      <point x="551" y="674" type="line"/>
      <point x="551" y="710" type="line"/>
      <point x="362" y="710" type="line"/>
      <point x="362" y="674" type="line"/>
      <point x="377" y="674" type="line" smooth="yes"/>
      <point x="410" y="674"/>
      <point x="429" y="668"/>
      <point x="429" y="661" type="curve" smooth="yes"/>
      <point x="429" y="35" type="line"/>
      <point x="441" y="18" type="line"/>
      <point x="200" y="710" type="line"/>
      <point x="43" y="710" type="line"/>
      <point x="43" y="674" type="line"/>
      <point x="64" y="674" type="line" smooth="yes"/>
      <point x="99" y="674"/>
      <point x="126" y="667"/>
      <point x="126" y="638" type="curve" smooth="yes"/>
      <point x="126" y="77" type="line" smooth="yes"/>
      <point x="126" y="48"/>
      <point x="99" y="36"/>
      <point x="64" y="36" type="curve" smooth="yes"/>
      <point x="43" y="36" type="line"/>
    </contour>
    <contour>
      <point x="146" y="489" type="line"/>
      <point x="19" y="489" type="line"/>
      <point x="19" y="455" type="line"/>
      <point x="144" y="455" type="line"/>
    </contour>
    <contour>
      <point x="574" y="455" type="line"/>
      <point x="574" y="489" type="line"/>
      <point x="258" y="489" type="line"/>
      <point x="257" y="461" type="line"/>
      <point x="441" y="460" type="line"/>
      <point x="441" y="455" type="line"/>
    </contour>
    <contour>
      <point x="19" y="223" type="line"/>
      <point x="331" y="223" type="line"/>
      <point x="331" y="251" type="line"/>
      <point x="150" y="253" type="line"/>
      <point x="150" y="258" type="line"/>
      <point x="19" y="258" type="line"/>
    </contour>
    <contour>
      <point x="433" y="223" type="line"/>
      <point x="574" y="223" type="line"/>
      <point x="574" y="258" type="line"/>
      <point x="436" y="258" type="line"/>
    </contour>
  </outline>
</glyph>
<glyph name="won" format="2">
  <advance width="594"/>
  <unicode hex="20A9"/>
  <outline>
    <contour>
      <point x="28" y="710" type="line"/>
      <point x="28" y="675" type="line"/>
      <point x="37" y="675" type="line" smooth="yes"/>
      <point x="61" y="675"/>
      <point x="80" y="672"/>
      <point x="83" y="638" type="curve" smooth="yes"/>
      <point x="147" y="0" type="line"/>
      <point x="200" y="0" type="line"/>
      <point x="305" y="703" type="line"/>
      <point x="301" y="707" type="line"/>
      <point x="409" y="0" type="line"/>
      <point x="462" y="0" type="line"/>
      <point x="511" y="632" type="line" smooth="yes"/>
      <point x="514" y="666"/>
      <point x="534" y="675"/>
      <point x="558" y="675" type="curve" smooth="yes"/>
      <point x="566" y="675" type="line"/>
      <point x="566" y="710" type="line"/>
      <point x="443" y="710" type="line"/>
      <point x="443" y="675" type="line"/>
      <point x="447" y="675" type="line" smooth="yes"/>
      <point x="472" y="675"/>
      <point x="480" y="668"/>
      <point x="480" y="657" type="curve"/>
      <point x="431" y="8" type="line"/>
      <point x="444" y="11" type="line"/>
      <point x="336" y="710" type="line"/>
      <point x="272" y="710" type="line"/>
      <point x="169" y="12" type="line"/>
      <point x="183" y="15" type="line"/>
      <point x="122" y="665" type="line"/>
      <point x="122" y="672"/>
      <point x="133" y="675"/>
      <point x="155" y="675" type="curve" smooth="yes"/>
      <point x="159" y="675" type="line"/>
      <point x="159" y="710" type="line"/>
    </contour>
    <contour>
      <point x="4" y="496" type="line"/>
      <point x="4" y="466" type="line"/>
      <point x="138" y="466" type="line"/>
      <point x="133" y="473" type="line"/>
      <point x="254" y="478" type="line"/>
      <point x="251" y="496" type="line"/>
    </contour>
    <contour>
      <point x="358" y="478" type="line"/>
      <point x="472" y="473" type="line"/>
      <point x="470" y="466" type="line"/>
      <point x="590" y="466" type="line"/>
      <point x="590" y="496" type="line"/>
      <point x="361" y="496" type="line"/>
    </contour>
    <contour>
      <point x="224" y="249" type="line"/>
      <point x="393" y="249" type="line"/>
      <point x="386" y="266" type="line"/>
      <point x="306" y="287" type="line"/>
      <point x="235" y="266" type="line"/>
    </contour>
    <contour>
      <point x="128" y="281" type="line"/>
      <point x="4" y="281" type="line"/>
      <point x="4" y="250" type="line"/>
      <point x="139" y="250" type="line"/>
    </contour>
    <contour>
      <point x="474" y="250" type="line"/>
      <point x="590" y="250" type="line"/>
      <point x="590" y="281" type="line"/>
      <point x="479" y="281" type="line"/>
    </contour>
  </outline>
</glyph>
<glyph name="kip" format="2">
  <advance width="594"/>
  <unicode hex="20AD"/>
  <outline>
    <contour>
      <point x="43" y="391" type="line"/>
      <point x="43" y="357" type="line"/>
      <point x="527" y="357" type="line"/>
      <point x="527" y="391" type="line"/>
    </contour>
    <contour>
      <point x="48" y="0" type="line"/>
      <point x="236" y="0" type="line"/>
      <point x="236" y="36" type="line"/>
      <point x="227" y="36" type="line" smooth="yes"/>
      <point x="195" y="36"/>
      <point x="167" y="39"/>
      <point x="167" y="46" type="curve" smooth="yes"/>
      <point x="167" y="664" type="line" smooth="yes"/>
      <point x="167" y="671"/>
      <point x="195" y="674"/>
      <point x="227" y="674" type="curve" smooth="yes"/>
      <point x="236" y="674" type="line"/>
      <point x="236" y="710" type="line"/>
      <point x="48" y="710" type="line"/>
      <point x="48" y="674" type="line"/>
      <point x="60" y="674" type="line" smooth="yes"/>
      <point x="93" y="674"/>
      <point x="117" y="667"/>
      <point x="117" y="638" type="curve" smooth="yes"/>
      <point x="117" y="72" type="line" smooth="yes"/>
      <point x="117" y="43"/>
      <point x="93" y="36"/>
      <point x="60" y="36" type="curve" smooth="yes"/>
      <point x="48" y="36" type="line"/>
    </contour>
    <contour>
      <point x="564" y="36" type="line"/>
      <point x="549" y="36" type="line" smooth="yes"/>
      <point x="521" y="36"/>
      <point x="504" y="41"/>
      <point x="485" y="69" type="curve" smooth="yes"/>
      <point x="277" y="378" type="line"/>
      <point x="273" y="363" type="line"/>
      <point x="483" y="645" type="line" smooth="yes"/>
      <point x="501" y="669"/>
      <point x="521" y="674"/>
      <point x="542" y="674" type="curve" smooth="yes"/>
      <point x="558" y="674" type="line"/>
      <point x="558" y="710" type="line"/>
      <point x="382" y="710" type="line"/>
      <point x="382" y="674" type="line"/>
      <point x="390" y="674" type="line" smooth="yes"/>
      <point x="419" y="674"/>
      <point x="449" y="671"/>
      <point x="449" y="664" type="curve"/>
      <point x="232" y="370" type="line"/>
      <point x="238" y="354" type="line"/>
      <point x="441" y="46" type="line"/>
      <point x="441" y="39"/>
      <point x="413" y="36"/>
      <point x="383" y="36" type="curve" smooth="yes"/>
      <point x="373" y="36" type="line"/>
      <point x="373" y="0" type="line"/>
      <point x="564" y="0" type="line"/>
    </contour>
  </outline>
</glyph>
<glyph name="guarani" format="2">
  <advance width="594"/>
  <unicode hex="20B2"/>
  <outline>
    <contour>
      <point x="291" y="790" type="line"/>
      <point x="291" y="695" type="line"/>
      <point x="293" y="685" type="line"/>
      <point x="293" y="32" type="line"/>
      <point x="291" y="21" type="line"/>
      <point x="291" y="-120" type="line"/>
      <point x="331" y="-120" type="line"/>
      <point x="331" y="22" type="line"/>
      <point x="329" y="32" type="line"/>
      <point x="329" y="681" type="line"/>
      <point x="331" y="699" type="line"/>
      <point x="331" y="790" type="line"/>
    </contour>
    <contour>
      <point x="313" y="10" type="curve" smooth="yes"/>
      <point x="405" y="10"/>
      <point x="474" y="54"/>
      <point x="506" y="86" type="curve"/>
      <point x="506" y="287" type="line" smooth="yes"/>
      <point x="506" y="316"/>
      <point x="530" y="323"/>
      <point x="559" y="323" type="curve" smooth="yes"/>
      <point x="570" y="323" type="line"/>
      <point x="570" y="358" type="line"/>
      <point x="464" y="358" type="line"/>
      <point x="464" y="297" type="line"/>
      <point x="464" y="297" type="line"/>
      <point x="464" y="297"/>
      <point x="464" y="290"/>
      <point x="464" y="261" type="curve" smooth="yes"/>
      <point x="464" y="95" type="line"/>
      <point x="444" y="75"/>
      <point x="407" y="45"/>
      <point x="323" y="45" type="curve" smooth="yes"/>
      <point x="147" y="45"/>
      <point x="89" y="139"/>
      <point x="89" y="355" type="curve" smooth="yes"/>
      <point x="89" y="565"/>
      <point x="143" y="665"/>
      <point x="322" y="665" type="curve" smooth="yes"/>
      <point x="368" y="665"/>
      <point x="451" y="661"/>
      <point x="496" y="617" type="curve"/>
      <point x="525" y="628"/>
      <point x="475" y="646"/>
      <point x="467" y="656" type="curve"/>
      <point x="467" y="516" type="line"/>
      <point x="515" y="516" type="line"/>
      <point x="515" y="655" type="line"/>
      <point x="471" y="684"/>
      <point x="408" y="700"/>
      <point x="322" y="700" type="curve" smooth="yes"/>
      <point x="125" y="700"/>
      <point x="41" y="577"/>
      <point x="41" y="355" type="curve" smooth="yes"/>
      <point x="41" y="129"/>
      <point x="125" y="10"/>
    </contour>
  </outline>
</glyph>
<glyph name="uni20B4" format="2">
  <advance width="594"/>
  <unicode hex="20B4"/>
  <outline>
    <contour>
      <point x="25" y="485" type="line"/>
      <point x="25" y="451" type="line"/>
      <point x="569" y="451" type="line"/>
      <point x="569" y="485" type="line"/>
    </contour>
    <contour>
      <point x="25" y="283" type="line"/>
      <point x="25" y="249" type="line"/>
      <point x="569" y="249" type="line"/>
      <point x="569" y="283" type="line"/>
    </contour>
    <contour>
      <point x="308" y="730" type="curve" smooth="yes"/>
      <point x="223" y="730"/>
      <point x="150" y="704"/>
      <point x="117" y="682" type="curve"/>
      <point x="117" y="577" type="line"/>
      <point x="170" y="577" type="line"/>
      <point x="170" y="701" type="line"/>
      <point x="159" y="696"/>
      <point x="137" y="668"/>
      <point x="146" y="657" type="curve"/>
      <point x="189" y="684"/>
      <point x="242" y="696"/>
      <point x="309" y="696" type="curve" smooth="yes"/>
      <point x="415" y="696"/>
      <point x="446" y="640"/>
      <point x="446" y="585" type="curve" smooth="yes"/>
      <point x="446" y="523"/>
      <point x="421" y="495"/>
      <point x="372" y="461" type="curve"/>
      <point x="442" y="453" type="line"/>
      <point x="475" y="481"/>
      <point x="503" y="516"/>
      <point x="503" y="586" type="curve" smooth="yes"/>
      <point x="503" y="677"/>
      <point x="437" y="730"/>
    </contour>
    <contour>
      <point x="311" y="-10" type="curve" smooth="yes"/>
      <point x="412" y="-10"/>
      <point x="488" y="24"/>
      <point x="521" y="46" type="curve"/>
      <point x="521" y="161" type="line"/>
      <point x="467" y="161" type="line"/>
      <point x="467" y="37" type="line"/>
      <point x="481" y="42"/>
      <point x="507" y="77"/>
      <point x="489" y="71" type="curve"/>
      <point x="442" y="44"/>
      <point x="388" y="24"/>
      <point x="310" y="24" type="curve" smooth="yes"/>
      <point x="213" y="24"/>
      <point x="150" y="68"/>
      <point x="150" y="150" type="curve" smooth="yes"/>
      <point x="150" y="208"/>
      <point x="172" y="253"/>
      <point x="219" y="281" type="curve"/>
      <point x="138" y="273" type="line"/>
      <point x="109" y="243"/>
      <point x="93" y="211"/>
      <point x="93" y="155" type="curve" smooth="yes"/>
      <point x="93" y="39"/>
      <point x="178" y="-10"/>
    </contour>
  </outline>
</glyph>
<glyph name="integral" format="2">
  <advance width="562"/>
  <unicode hex="222B"/>
  <outline>
    <contour>
      <point x="259" y="-69" type="curve" smooth="yes"/>
      <point x="282" y="570" type="line" smooth="yes"/>
      <point x="285" y="658"/>
      <point x="308" y="703"/>
      <point x="410" y="703" type="curve" smooth="yes"/>
      <point x="453" y="703"/>
      <point x="493" y="697"/>
      <point x="514" y="686" type="curve"/>
      <point x="506" y="712"/>
      <point x="510" y="707"/>
      <point x="479" y="716" type="curve"/>
      <point x="479" y="591" type="line"/>
      <point x="529" y="591" type="line"/>
      <point x="529" y="720" type="line"/>
      <point x="509" y="727"/>
      <point x="460" y="737"/>
      <point x="416" y="737" type="curve" smooth="yes"/>
      <point x="291" y="737"/>
      <point x="237" y="691"/>
      <point x="233" y="570" type="curve" smooth="yes"/>
      <point x="210" y="-69" type="line" smooth="yes"/>
      <point x="207" y="-157"/>
      <point x="178" y="-202"/>
      <point x="95" y="-202" type="curve" smooth="yes"/>
      <point x="46" y="-202"/>
      <point x="30" y="-197"/>
      <point x="7" y="-188" type="curve"/>
      <point x="-15" y="-184"/>
      <point x="9" y="-205"/>
      <point x="20" y="-202" type="curve"/>
      <point x="20" y="-87" type="line"/>
      <point x="-30" y="-87" type="line"/>
      <point x="-30" y="-215" type="line"/>
      <point x="2" y="-227"/>
      <point x="44" y="-236"/>
      <point x="91" y="-236" type="curve" smooth="yes"/>
      <point x="199" y="-236"/>
      <point x="255" y="-190"/>
    </contour>
  </outline>
</glyph>
<glyph name="approxequal" format="2">
  <advance width="594"/>
  <unicode hex="2248"/>
  <outline>
    <contour>
      <point x="402" y="351" type="curve" smooth="yes"/>
      <point x="482" y="351"/>
      <point x="529" y="395"/>
      <point x="551" y="509" type="curve"/>
      <point x="502" y="521" type="line"/>
      <point x="489" y="461"/>
      <point x="471" y="395"/>
      <point x="405" y="395" type="curve" smooth="yes"/>
      <point x="324" y="395"/>
      <point x="301" y="519"/>
      <point x="193" y="519" type="curve" smooth="yes"/>
      <point x="112" y="519"/>
      <point x="65" y="474"/>
      <point x="42" y="362" type="curve"/>
      <point x="91" y="350" type="line"/>
      <point x="105" y="409"/>
      <point x="123" y="476"/>
      <point x="188" y="476" type="curve" smooth="yes"/>
      <point x="260" y="476"/>
      <point x="290" y="351"/>
    </contour>
    <contour>
      <point x="402" y="89" type="curve" smooth="yes"/>
      <point x="482" y="89"/>
      <point x="529" y="133"/>
      <point x="551" y="247" type="curve"/>
      <point x="502" y="259" type="line"/>
      <point x="489" y="199"/>
      <point x="471" y="133"/>
      <point x="405" y="133" type="curve" smooth="yes"/>
      <point x="324" y="133"/>
      <point x="301" y="257"/>
      <point x="193" y="257" type="curve" smooth="yes"/>
      <point x="112" y="257"/>
      <point x="65" y="212"/>
      <point x="42" y="100" type="curve"/>
      <point x="91" y="88" type="line"/>
      <point x="105" y="147"/>
      <point x="123" y="214"/>
      <point x="188" y="214" type="curve" smooth="yes"/>
      <point x="260" y="214"/>
      <point x="290" y="89"/>
    </contour>
  </outline>
</glyph>
<glyph name="notequal" format="2">
  <advance width="594"/>
  <unicode hex="2260"/>
  <outline>
    <contour>
      <point x="485" y="614" type="line"/>
      <point x="57" y="35" type="line"/>
      <point x="108" y="35" type="line"/>
      <point x="536" y="614" type="line"/>
    </contour>
    <component base="equal"/>
  </outline>
</glyph>
<glyph name="hook" format="2">
  <advance width="530"/>
  <unicode hex="2440"/>
  <anchor x="257" y="516" name="_top"/>
  <outline>
    <contour>
      <point x="107" y="797" type="line"/>
      <point x="115" y="876"/>
      <point x="178" y="921"/>
      <point x="272" y="921" type="curve" smooth="yes"/>
      <point x="376" y="921"/>
      <point x="421" y="884"/>
      <point x="421" y="821" type="curve" smooth="yes"/>
      <point x="421" y="741"/>
      <point x="353" y="703"/>
      <point x="249" y="699" type="curve"/>
      <point x="287" y="725" type="line"/>
      <point x="287" y="646" type="line"/>
      <point x="233" y="646" type="line"/>
      <point x="233" y="735" type="line"/>
      <point x="312" y="737"/>
      <point x="367" y="752"/>
      <point x="367" y="815" type="curve" smooth="yes"/>
      <point x="367" y="864"/>
      <point x="337" y="885"/>
      <point x="272" y="885" type="curve" smooth="yes"/>
      <point x="207" y="885"/>
      <point x="173" y="857"/>
      <point x="163" y="797" type="curve"/>
    </contour>
  </outline>
</glyph>
<glyph name="f_f" format="2">
  <advance width="852"/>
  <unicode hex="FB00"/>
  <outline>
    <contour>
      <point x="51" y="565" type="line"/>
      <point x="51" y="526" type="line"/>
      <point x="515" y="526" type="line"/>
      <point x="515" y="565" type="line"/>
    </contour>
    <contour>
      <point x="423" y="565" type="line"/>
      <point x="423" y="526" type="line"/>
      <point x="789" y="526" type="line"/>
      <point x="789" y="565" type="line"/>
    </contour>
    <contour>
      <point x="223" y="47" type="curve" smooth="yes"/>
      <point x="223" y="631" type="line" smooth="yes"/>
      <point x="223" y="707"/>
      <point x="257" y="733"/>
      <point x="337" y="733" type="curve" smooth="yes"/>
      <point x="378" y="733"/>
      <point x="419" y="725"/>
      <point x="440" y="721" type="curve"/>
      <point x="440" y="765" type="line"/>
      <point x="426" y="769"/>
      <point x="381" y="775"/>
      <point x="338" y="775" type="curve" smooth="yes"/>
      <point x="243" y="775"/>
      <point x="174" y="740"/>
      <point x="174" y="631" type="curve" smooth="yes"/>
      <point x="174" y="113" type="line" smooth="yes"/>
      <point x="174" y="53"/>
      <point x="139" y="37"/>
      <point x="76" y="37" type="curve" smooth="yes"/>
      <point x="51" y="37" type="line"/>
      <point x="51" y="0" type="line"/>
      <point x="341" y="0" type="line"/>
      <point x="341" y="37" type="line"/>
      <point x="308" y="37" type="line" smooth="yes"/>
      <point x="283" y="37"/>
      <point x="223" y="40"/>
    </contour>
    <contour>
      <point x="546" y="47" type="line"/>
      <point x="546" y="40"/>
      <point x="486" y="37"/>
      <point x="460" y="37" type="curve" smooth="yes"/>
      <point x="439" y="37" type="line"/>
      <point x="439" y="0" type="line"/>
      <point x="728" y="0" type="line"/>
      <point x="728" y="37" type="line"/>
      <point x="690" y="37" type="line" smooth="yes"/>
      <point x="657" y="37"/>
      <point x="595" y="40"/>
      <point x="595" y="47" type="curve" smooth="yes"/>
      <point x="595" y="648" type="line" smooth="yes"/>
      <point x="595" y="723"/>
      <point x="628" y="748"/>
      <point x="720" y="748" type="curve" smooth="yes"/>
      <point x="772" y="748"/>
      <point x="813" y="740"/>
      <point x="833" y="736" type="curve"/>
      <point x="833" y="780" type="line"/>
      <point x="820" y="784"/>
      <point x="775" y="790"/>
      <point x="721" y="790" type="curve" smooth="yes"/>
      <point x="614" y="790"/>
      <point x="546" y="755"/>
      <point x="546" y="647" type="curve"/>
    </contour>
  </outline>
</glyph>
<glyph name="breve_tilde" format="2">
  <advance width="530"/>
  <anchor x="265" y="524" name="_top"/>
  <outline>
    <contour>
      <point x="336" y="892" type="curve" smooth="yes"/>
      <point x="386" y="892"/>
      <point x="414" y="913"/>
      <point x="440" y="1025" type="curve"/>
      <point x="396" y="1035" type="line"/>
      <point x="380" y="972"/>
      <point x="368" y="937"/>
      <point x="338" y="937" type="curve" smooth="yes"/>
      <point x="290" y="937"/>
      <point x="279" y="1030"/>
      <point x="196" y="1030" type="curve" smooth="yes"/>
      <point x="141" y="1030"/>
      <point x="109" y="1003"/>
      <point x="88" y="901" type="curve"/>
      <point x="133" y="891" type="line"/>
      <point x="148" y="953"/>
      <point x="160" y="983"/>
      <point x="190" y="983" type="curve" smooth="yes"/>
      <point x="242" y="983"/>
      <point x="254" y="892"/>
    </contour>
    <contour>
      <point x="265" y="675" type="curve" smooth="yes"/>
      <point x="165" y="675"/>
      <point x="113" y="710"/>
      <point x="110" y="827" type="curve"/>
      <point x="157" y="827" type="line"/>
      <point x="166" y="754"/>
      <point x="182" y="722"/>
      <point x="267" y="722" type="curve" smooth="yes"/>
      <point x="349" y="722"/>
      <point x="367" y="756"/>
      <point x="376" y="827" type="curve"/>
      <point x="420" y="827" type="line"/>
      <point x="417" y="710"/>
      <point x="365" y="675"/>
    </contour>
  </outline>
</glyph>
<glyph name="caron.alt" format="2">
  <advance width="530"/>
  <anchor x="168" y="574" name="_right"/>
  <outline>
    <contour>
      <point x="243" y="517" type="line"/>
      <point x="200" y="517" type="line"/>
      <point x="200" y="541" type="line"/>
      <point x="217" y="710" type="line"/>
      <point x="299" y="710" type="line"/>
    </contour>
  </outline>
</glyph>
<glyph name="cedi.proportional" format="2">
  <advance width="684"/>
  <outline>
    <contour>
      <point x="393" y="700" type="curve" smooth="yes"/>
      <point x="165" y="700"/>
      <point x="54" y="579"/>
      <point x="54" y="355" type="curve" smooth="yes"/>
      <point x="54" y="132"/>
      <point x="172" y="10"/>
      <point x="366" y="10" type="curve" smooth="yes"/>
      <point x="519" y="10"/>
      <point x="596" y="97"/>
      <point x="634" y="226" type="curve"/>
      <point x="594" y="235" type="line"/>
      <point x="555" y="111"/>
      <point x="502" y="43"/>
      <point x="364" y="43" type="curve" smooth="yes"/>
      <point x="195" y="43"/>
      <point x="102" y="166"/>
      <point x="102" y="355" type="curve" smooth="yes"/>
      <point x="102" y="551"/>
      <point x="183" y="665"/>
      <point x="393" y="665" type="curve" smooth="yes"/>
      <point x="491" y="665"/>
      <point x="553" y="643"/>
      <point x="583" y="628" type="curve"/>
      <point x="607" y="627"/>
      <point x="570" y="666"/>
      <point x="564" y="675" type="curve"/>
      <point x="564" y="502" type="line"/>
      <point x="614" y="502" type="line"/>
      <point x="614" y="655" type="line"/>
      <point x="590" y="668"/>
      <point x="500" y="700"/>
    </contour>
    <contour>
      <point x="342" y="790" type="line"/>
      <point x="342" y="678" type="line"/>
      <point x="344" y="669" type="line"/>
      <point x="344" y="51" type="line"/>
      <point x="342" y="37" type="line"/>
      <point x="342" y="-120" type="line"/>
      <point x="382" y="-120" type="line"/>
      <point x="382" y="39" type="line"/>
      <point x="380" y="47" type="line"/>
      <point x="380" y="672" type="line"/>
      <point x="382" y="680" type="line"/>
      <point x="382" y="790" type="line"/>
    </contour>
  </outline>
</glyph>
<glyph name="circumflex_acute.uc" format="2">
  <advance width="590"/>
  <anchor x="270" y="749" name="_top"/>
  <outline>
    <contour>
      <point x="478" y="1035" type="curve" smooth="yes"/>
      <point x="412" y="935" type="line"/>
      <point x="412" y="915" type="line"/>
      <point x="436" y="915" type="line"/>
      <point x="544" y="1013" type="line" smooth="yes"/>
      <point x="571" y="1036"/>
      <point x="588" y="1047"/>
      <point x="588" y="1068" type="curve" smooth="yes"/>
      <point x="588" y="1086"/>
      <point x="575" y="1100"/>
      <point x="549" y="1100" type="curve" smooth="yes"/>
      <point x="516" y="1100"/>
      <point x="504" y="1077"/>
    </contour>
    <component base="circumflex.uc"/>
  </outline>
</glyph>
<glyph name="circumflex_hook" format="2">
  <advance width="572"/>
  <anchor x="271" y="559" name="_top"/>
  <outline>
    <contour>
      <point x="327" y="936" type="line"/>
      <point x="335" y="1000"/>
      <point x="386" y="1043"/>
      <point x="473" y="1043" type="curve" smooth="yes"/>
      <point x="566" y="1043"/>
      <point x="612" y="1007"/>
      <point x="612" y="950" type="curve" smooth="yes"/>
      <point x="612" y="884"/>
      <point x="554" y="851"/>
      <point x="476" y="847" type="curve"/>
      <point x="494" y="872" type="line"/>
      <point x="494" y="788" type="line"/>
      <point x="448" y="788" type="line"/>
      <point x="448" y="881" type="line"/>
      <point x="516" y="882"/>
      <point x="557" y="891"/>
      <point x="557" y="949" type="curve" smooth="yes"/>
      <point x="557" y="989"/>
      <point x="531" y="1006"/>
      <point x="473" y="1006" type="curve" smooth="yes"/>
      <point x="416" y="1006"/>
      <point x="393" y="986"/>
      <point x="384" y="936" type="curve"/>
    </contour>
    <component base="circumflex"/>
  </outline>
</glyph>
<glyph name="f.alt" format="2">
  <advance width="480"/>
  <outline>
    <contour>
      <point x="51" y="565" type="line"/>
      <point x="51" y="526" type="line"/>
      <point x="417" y="526" type="line"/>
      <point x="417" y="565" type="line"/>
    </contour>
    <contour>
      <point x="353" y="757" type="curve" smooth="yes"/>
      <point x="405" y="757"/>
      <point x="444" y="749"/>
      <point x="478" y="735" type="curve"/>
      <point x="463" y="751"/>
      <point x="447" y="762"/>
      <point x="433" y="776" type="curve"/>
      <point x="433" y="664" type="line"/>
      <point x="482" y="664" type="line"/>
      <point x="482" y="771" type="line"/>
      <point x="470" y="775"/>
      <point x="419" y="790"/>
      <point x="353" y="790" type="curve" smooth="yes"/>
      <point x="246" y="790"/>
      <point x="174" y="755"/>
      <point x="174" y="647" type="curve" smooth="yes"/>
      <point x="174" y="113" type="line" smooth="yes"/>
      <point x="174" y="53"/>
      <point x="139" y="37"/>
      <point x="76" y="37" type="curve" smooth="yes"/>
      <point x="51" y="37" type="line"/>
      <point x="51" y="0" type="line"/>
      <point x="356" y="0" type="line"/>
      <point x="356" y="37" type="line"/>
      <point x="318" y="37" type="line" smooth="yes"/>
      <point x="285" y="37"/>
      <point x="223" y="40"/>
      <point x="223" y="47" type="curve" smooth="yes"/>
      <point x="223" y="647" type="line" smooth="yes"/>
      <point x="223" y="723"/>
      <point x="258" y="757"/>
    </contour>
  </outline>
</glyph>
<glyph name="f.short" format="2">
  <advance width="436"/>
  <outline>
    <contour>
      <point x="51" y="565" type="line"/>
      <point x="51" y="526" type="line"/>
      <point x="406" y="526" type="line"/>
      <point x="406" y="565" type="line"/>
    </contour>
    <contour>
      <point x="223" y="47" type="curve" smooth="yes"/>
      <point x="223" y="653" type="line" smooth="yes"/>
      <point x="223" y="722"/>
      <point x="264" y="748"/>
      <point x="327" y="748" type="curve"/>
      <point x="370" y="748"/>
      <point x="401" y="741"/>
      <point x="419" y="737" type="curve"/>
      <point x="419" y="781" type="line"/>
      <point x="405" y="785"/>
      <point x="370" y="790"/>
      <point x="328" y="790" type="curve"/>
      <point x="246" y="790"/>
      <point x="174" y="755"/>
      <point x="174" y="653" type="curve" smooth="yes"/>
      <point x="174" y="113" type="line" smooth="yes"/>
      <point x="174" y="53"/>
      <point x="139" y="37"/>
      <point x="76" y="37" type="curve" smooth="yes"/>
      <point x="51" y="37" type="line"/>
      <point x="51" y="0" type="line"/>
      <point x="356" y="0" type="line"/>
      <point x="356" y="37" type="line"/>
      <point x="318" y="37" type="line" smooth="yes"/>
      <point x="285" y="37"/>
      <point x="223" y="40"/>
    </contour>
  </outline>
</glyph>
<glyph name="f_f.alt" format="2">
  <advance width="852"/>
  <outline>
    <contour>
      <point x="51" y="565" type="line"/>
      <point x="51" y="526" type="line"/>
      <point x="478" y="526" type="line"/>
      <point x="478" y="565" type="line"/>
    </contour>
    <contour>
      <point x="425" y="565" type="line"/>
      <point x="425" y="526" type="line"/>
      <point x="789" y="526" type="line"/>
      <point x="789" y="565" type="line"/>
    </contour>
    <contour>
      <point x="546" y="47" type="line" smooth="yes"/>
      <point x="546" y="40"/>
      <point x="493" y="37"/>
      <point x="460" y="37" type="curve" smooth="yes"/>
      <point x="437" y="37" type="line"/>
      <point x="437" y="0" type="line"/>
      <point x="728" y="0" type="line"/>
      <point x="728" y="37" type="line"/>
      <point x="690" y="37" type="line" smooth="yes"/>
      <point x="657" y="37"/>
      <point x="595" y="40"/>
      <point x="595" y="47" type="curve" smooth="yes"/>
      <point x="595" y="647" type="line" smooth="yes"/>
      <point x="595" y="723"/>
      <point x="630" y="757"/>
      <point x="725" y="757" type="curve" smooth="yes"/>
      <point x="777" y="757"/>
      <point x="816" y="749"/>
      <point x="850" y="735" type="curve"/>
      <point x="834" y="748"/>
      <point x="820" y="764"/>
      <point x="806" y="776" type="curve"/>
      <point x="806" y="664" type="line"/>
      <point x="854" y="664" type="line"/>
      <point x="854" y="771" type="line"/>
      <point x="842" y="775"/>
      <point x="791" y="790"/>
      <point x="725" y="790" type="curve" smooth="yes"/>
      <point x="618" y="790"/>
      <point x="546" y="755"/>
      <point x="546" y="634" type="curve"/>
    </contour>
    <contour>
      <point x="51" y="0" type="line"/>
      <point x="343" y="0" type="line"/>
      <point x="343" y="37" type="line"/>
      <point x="309" y="37" type="line" smooth="yes"/>
      <point x="276" y="37"/>
      <point x="223" y="40"/>
      <point x="223" y="47" type="curve" smooth="yes"/>
      <point x="223" y="632" type="line" smooth="yes"/>
      <point x="223" y="708"/>
      <point x="256" y="742"/>
      <point x="382" y="742" type="curve" smooth="yes"/>
      <point x="486" y="742"/>
      <point x="545" y="713"/>
      <point x="591" y="677" type="curve"/>
      <point x="583" y="697"/>
      <point x="567" y="711"/>
      <point x="546" y="728" type="curve"/>
      <point x="546" y="660" type="line"/>
      <point x="584" y="660" type="line"/>
      <point x="584" y="721" type="line"/>
      <point x="565" y="740"/>
      <point x="492" y="775"/>
      <point x="382" y="775" type="curve" smooth="yes"/>
      <point x="258" y="775"/>
      <point x="174" y="740"/>
      <point x="174" y="632" type="curve" smooth="yes"/>
      <point x="174" y="113" type="line" smooth="yes"/>
      <point x="174" y="53"/>
      <point x="139" y="37"/>
      <point x="76" y="37" type="curve" smooth="yes"/>
      <point x="51" y="37" type="line"/>
    </contour>
  </outline>
</glyph>
<glyph name="f_i" format="2">
  <advance width="751"/>
  <outline>
    <contour>
      <point x="51" y="565" type="line"/>
      <point x="51" y="526" type="line"/>
      <point x="470" y="526" type="line"/>
      <point x="470" y="565" type="line"/>
    </contour>
    <contour>
      <point x="566" y="699" type="curve" smooth="yes"/>
      <point x="598" y="699"/>
      <point x="624" y="712"/>
      <point x="624" y="751" type="curve" smooth="yes"/>
      <point x="624" y="790"/>
      <point x="598" y="804"/>
      <point x="566" y="804" type="curve" smooth="yes"/>
      <point x="532" y="804"/>
      <point x="508" y="790"/>
      <point x="508" y="751" type="curve" smooth="yes"/>
      <point x="508" y="712"/>
      <point x="532" y="699"/>
    </contour>
    <contour>
      <point x="462" y="0" type="line"/>
      <point x="703" y="0" type="line"/>
      <point x="703" y="37" type="line"/>
      <point x="699" y="37" type="line" smooth="yes"/>
      <point x="639" y="37"/>
      <point x="607" y="53"/>
      <point x="607" y="113" type="curve" smooth="yes"/>
      <point x="607" y="565" type="line"/>
      <point x="453" y="565" type="line"/>
      <point x="408" y="526" type="line"/>
      <point x="418" y="526" type="line" smooth="yes"/>
      <point x="473" y="526"/>
      <point x="558" y="514"/>
      <point x="558" y="483" type="curve" smooth="yes"/>
      <point x="558" y="47" type="line" smooth="yes"/>
      <point x="558" y="40"/>
      <point x="499" y="37"/>
      <point x="466" y="37" type="curve" smooth="yes"/>
      <point x="462" y="37" type="line"/>
    </contour>
    <contour>
      <point x="347" y="0" type="line"/>
      <point x="347" y="37" type="line"/>
      <point x="319" y="37" type="line" smooth="yes"/>
      <point x="286" y="37"/>
      <point x="223" y="40"/>
      <point x="223" y="47" type="curve" smooth="yes"/>
      <point x="223" y="653" type="line" smooth="yes"/>
      <point x="223" y="722"/>
      <point x="265" y="748"/>
      <point x="328" y="748" type="curve"/>
      <point x="372" y="748"/>
      <point x="403" y="741"/>
      <point x="422" y="737" type="curve"/>
      <point x="422" y="781" type="line"/>
      <point x="408" y="785"/>
      <point x="372" y="790"/>
      <point x="329" y="790" type="curve"/>
      <point x="246" y="790"/>
      <point x="174" y="755"/>
      <point x="174" y="653" type="curve" smooth="yes"/>
      <point x="174" y="113" type="line" smooth="yes"/>
      <point x="174" y="53"/>
      <point x="139" y="37"/>
      <point x="76" y="37" type="curve" smooth="yes"/>
      <point x="51" y="37" type="line"/>
      <point x="51" y="0" type="line"/>
    </contour>
  </outline>
</glyph>
<glyph name="f_j.alt" format="2">
  <advance width="722"/>
  <outline>
    <contour>
      <point x="51" y="565" type="line"/>
      <point x="51" y="526" type="line"/>
      <point x="455" y="526" type="line"/>
      <point x="455" y="565" type="line"/>
    </contour>
    <contour>
      <point x="556" y="-79" type="line" smooth="yes"/>
      <point x="556" y="-189"/>
      <point x="515" y="-209"/>
      <point x="438" y="-209" type="curve" smooth="yes"/>
      <point x="391" y="-209"/>
      <point x="357" y="-200"/>
      <point x="339" y="-195" type="curve"/>
      <point x="339" y="-240" type="line"/>
      <point x="356" y="-245"/>
      <point x="392" y="-250"/>
      <point x="438" y="-250" type="curve" smooth="yes"/>
      <point x="540" y="-250"/>
      <point x="607" y="-212"/>
      <point x="607" y="-79" type="curve" smooth="yes"/>
      <point x="607" y="565" type="line"/>
      <point x="453" y="565" type="line"/>
      <point x="407" y="526" type="line"/>
      <point x="417" y="526" type="line" smooth="yes"/>
      <point x="472" y="526"/>
      <point x="556" y="514"/>
      <point x="556" y="483" type="curve" smooth="yes"/>
    </contour>
    <contour>
      <point x="223" y="47" type="curve" smooth="yes"/>
      <point x="223" y="653" type="line" smooth="yes"/>
      <point x="223" y="726"/>
      <point x="270" y="757"/>
      <point x="400" y="757" type="curve" smooth="yes"/>
      <point x="472" y="757"/>
      <point x="525" y="750"/>
      <point x="571" y="736" type="curve"/>
      <point x="559" y="756"/>
      <point x="543" y="765"/>
      <point x="527" y="776" type="curve"/>
      <point x="527" y="664" type="line"/>
      <point x="575" y="664" type="line"/>
      <point x="575" y="772" type="line"/>
      <point x="559" y="777"/>
      <point x="493" y="790"/>
      <point x="407" y="790" type="curve" smooth="yes"/>
      <point x="267" y="790"/>
      <point x="174" y="758"/>
      <point x="174" y="653" type="curve" smooth="yes"/>
      <point x="174" y="113" type="line" smooth="yes"/>
      <point x="174" y="53"/>
      <point x="139" y="37"/>
      <point x="76" y="37" type="curve" smooth="yes"/>
      <point x="51" y="37" type="line"/>
      <point x="51" y="0" type="line"/>
      <point x="347" y="0" type="line"/>
      <point x="347" y="37" type="line"/>
      <point x="319" y="37" type="line" smooth="yes"/>
      <point x="286" y="37"/>
      <point x="223" y="40"/>
    </contour>
  </outline>
</glyph>
<glyph name="four.linprop" format="2">
  <advance width="632"/>
  <outline>
    <contour>
      <point x="307" y="0" type="line"/>
      <point x="577" y="0" type="line"/>
      <point x="577" y="36" type="line"/>
      <point x="558" y="36" type="line" smooth="yes"/>
      <point x="506" y="36"/>
      <point x="468" y="43"/>
      <point x="468" y="72" type="curve" smooth="yes"/>
      <point x="468" y="710" type="line"/>
      <point x="410" y="710" type="line"/>
      <point x="419" y="698" type="line"/>
      <point x="419" y="72" type="line" smooth="yes"/>
      <point x="419" y="43"/>
      <point x="381" y="36"/>
      <point x="329" y="36" type="curve" smooth="yes"/>
      <point x="307" y="36" type="line"/>
    </contour>
    <contour>
      <point x="53" y="222" type="line"/>
      <point x="607" y="222" type="line"/>
      <point x="607" y="263" type="line"/>
      <point x="84" y="263" type="line"/>
      <point x="80" y="247" type="line"/>
      <point x="436" y="708" type="line"/>
      <point x="432" y="710" type="line"/>
      <point x="391" y="710" type="line"/>
      <point x="53" y="275" type="line"/>
    </contour>
  </outline>
</glyph>
<glyph name="four.oldprop" format="2">
  <advance width="632"/>
  <outline>
    <contour>
      <point x="59" y="115" type="line"/>
      <point x="613" y="115" type="line"/>
      <point x="613" y="156" type="line"/>
      <point x="89" y="156" type="line"/>
      <point x="87" y="140" type="line"/>
      <point x="434" y="637" type="line"/>
      <point x="430" y="639" type="line"/>
      <point x="390" y="639" type="line"/>
      <point x="59" y="168" type="line"/>
    </contour>
    <contour>
      <point x="472" y="-83" type="line"/>
      <point x="472" y="639" type="line"/>
      <point x="407" y="639" type="line"/>
      <point x="423" y="627" type="line"/>
      <point x="423" y="-83" type="line"/>
    </contour>
  </outline>
</glyph>
<glyph name="g.alt" format="2">
  <advance width="673"/>
  <outline>
    <contour>
      <point x="524" y="8" type="line" smooth="yes"/>
      <point x="524" y="-141"/>
      <point x="452" y="-198"/>
      <point x="311" y="-198" type="curve" smooth="yes"/>
      <point x="210" y="-198"/>
      <point x="140" y="-176"/>
      <point x="102" y="-149" type="curve"/>
      <point x="95" y="-177"/>
      <point x="100" y="-192"/>
      <point x="135" y="-209" type="curve"/>
      <point x="135" y="-42" type="line"/>
      <point x="75" y="-42" type="line"/>
      <point x="75" y="-184" type="line"/>
      <point x="112" y="-209"/>
      <point x="192" y="-239"/>
      <point x="311" y="-239" type="curve" smooth="yes"/>
      <point x="476" y="-239"/>
      <point x="573" y="-162"/>
      <point x="573" y="8" type="curve" smooth="yes"/>
      <point x="573" y="579" type="line"/>
      <point x="545" y="579" type="line"/>
      <point x="524" y="434" type="line"/>
      <point x="524" y="423" type="line"/>
    </contour>
    <contour>
      <point x="111" y="303" type="curve" smooth="yes"/>
      <point x="111" y="458"/>
      <point x="179" y="536"/>
      <point x="314" y="536" type="curve" smooth="yes"/>
      <point x="417" y="536"/>
      <point x="479" y="472"/>
      <point x="526" y="381" type="curve"/>
      <point x="538" y="417" type="line"/>
      <point x="484" y="520"/>
      <point x="402" y="576"/>
      <point x="306" y="576" type="curve" smooth="yes"/>
      <point x="147" y="576"/>
      <point x="55" y="465"/>
      <point x="55" y="303" type="curve" smooth="yes"/>
      <point x="55" y="139"/>
      <point x="128" y="36"/>
      <point x="289" y="36" type="curve" smooth="yes"/>
      <point x="371" y="36"/>
      <point x="451" y="91"/>
      <point x="534" y="196" type="curve"/>
      <point x="525" y="231" type="line"/>
      <point x="452" y="139"/>
      <point x="389" y="76"/>
      <point x="298" y="76" type="curve" smooth="yes"/>
      <point x="160" y="76"/>
      <point x="111" y="154"/>
    </contour>
  </outline>
</glyph>
<glyph name="hook.uc" format="2">
  <advance width="530"/>
  <anchor x="263" y="679" name="_top"/>
  <outline>
    <contour>
      <point x="107" y="940" type="line"/>
      <point x="116" y="1016"/>
      <point x="178" y="1059"/>
      <point x="274" y="1059" type="curve" smooth="yes"/>
      <point x="374" y="1059"/>
      <point x="420" y="1023"/>
      <point x="420" y="961" type="curve" smooth="yes"/>
      <point x="420" y="885"/>
      <point x="356" y="855"/>
      <point x="253" y="852" type="curve"/>
      <point x="288" y="874" type="line"/>
      <point x="288" y="794" type="line"/>
      <point x="231" y="794" type="line"/>
      <point x="231" y="886" type="line"/>
      <point x="311" y="889"/>
      <point x="365" y="896"/>
      <point x="365" y="957" type="curve" smooth="yes"/>
      <point x="365" y="1005"/>
      <point x="334" y="1020"/>
      <point x="274" y="1020" type="curve" smooth="yes"/>
      <point x="207" y="1020"/>
      <point x="176" y="997"/>
      <point x="166" y="940" type="curve"/>
    </contour>
  </outline>
</glyph>
<glyph name="lira.alt" format="2">
  <advance width="594"/>
  <outline>
    <contour>
      <point x="47" y="0" type="line"/>
      <point x="546" y="0" type="line"/>
      <point x="546" y="175" type="line"/>
      <point x="501" y="175" type="line"/>
      <point x="485" y="82" type="line" smooth="yes"/>
      <point x="479" y="46"/>
      <point x="444" y="37"/>
      <point x="353" y="37" type="curve" smooth="yes"/>
      <point x="77" y="37" type="line"/>
      <point x="82" y="21" type="line"/>
      <point x="202" y="79"/>
      <point x="261" y="148"/>
      <point x="261" y="249" type="curve" smooth="yes"/>
      <point x="261" y="400"/>
      <point x="167" y="452"/>
      <point x="167" y="560" type="curve" smooth="yes"/>
      <point x="167" y="662"/>
      <point x="233" y="701"/>
      <point x="336" y="701" type="curve" smooth="yes"/>
      <point x="402" y="701"/>
      <point x="451" y="689"/>
      <point x="490" y="662" type="curve"/>
      <point x="486" y="681"/>
      <point x="479" y="704"/>
      <point x="463" y="706" type="curve"/>
      <point x="463" y="579" type="line"/>
      <point x="512" y="579" type="line"/>
      <point x="512" y="693" type="line"/>
      <point x="479" y="712"/>
      <point x="429" y="735"/>
      <point x="336" y="735" type="curve" smooth="yes"/>
      <point x="205" y="735"/>
      <point x="115" y="681"/>
      <point x="115" y="552" type="curve" smooth="yes"/>
      <point x="115" y="443"/>
      <point x="214" y="387"/>
      <point x="214" y="246" type="curve" smooth="yes"/>
      <point x="214" y="142"/>
      <point x="142" y="83"/>
      <point x="47" y="34" type="curve"/>
    </contour>
    <contour>
      <point x="51" y="464" type="line"/>
      <point x="51" y="428" type="line"/>
      <point x="454" y="428" type="line"/>
      <point x="454" y="464" type="line"/>
    </contour>
    <contour>
      <point x="51" y="295" type="line"/>
      <point x="51" y="260" type="line"/>
      <point x="454" y="260" type="line"/>
      <point x="454" y="295" type="line"/>
    </contour>
  </outline>
</glyph>
<glyph name="liraTurkish.proportional" format="2">
  <advance width="671"/>
  <outline>
    <contour>
      <point x="56" y="425" type="line"/>
      <point x="56" y="387" type="line"/>
      <point x="496" y="571" type="line"/>
      <point x="496" y="609" type="line"/>
    </contour>
    <contour>
      <point x="56" y="236" type="line"/>
      <point x="56" y="198" type="line"/>
      <point x="496" y="382" type="line"/>
      <point x="496" y="420" type="line"/>
    </contour>
    <contour>
      <point x="212" y="638" type="line" smooth="yes"/>
      <point x="212" y="667"/>
      <point x="252" y="674"/>
      <point x="295" y="674" type="curve" smooth="yes"/>
      <point x="301" y="674" type="line"/>
      <point x="301" y="710" type="line"/>
      <point x="61" y="710" type="line"/>
      <point x="61" y="674" type="line"/>
      <point x="76" y="674" type="line" smooth="yes"/>
      <point x="128" y="674"/>
      <point x="163" y="667"/>
      <point x="163" y="638" type="curve" smooth="yes"/>
      <point x="163" y="72" type="line" smooth="yes"/>
      <point x="163" y="43"/>
      <point x="128" y="36"/>
      <point x="76" y="36" type="curve" smooth="yes"/>
      <point x="61" y="36" type="line"/>
      <point x="61" y="0" type="line"/>
      <point x="336" y="0" type="line" smooth="yes"/>
      <point x="538" y="0"/>
      <point x="604" y="100"/>
      <point x="623" y="264" type="curve"/>
      <point x="573" y="272" type="line"/>
      <point x="562" y="141"/>
      <point x="512" y="35"/>
      <point x="371" y="35" type="curve" smooth="yes"/>
      <point x="212" y="35" type="line"/>
    </contour>
  </outline>
</glyph>
<glyph name="lslash" format="2">
  <advance width="430"/>
  <outline>
    <contour>
      <point x="44" y="243" type="line"/>
      <point x="400" y="530" type="line"/>
      <point x="400" y="580" type="line"/>
      <point x="44" y="294" type="line"/>
    </contour>
    <component base="l" xOffset="33"/>
  </outline>
</glyph>
<glyph name="naira.proportional" format="2">
  <advance width="768"/>
  <outline>
    <contour>
      <point x="202" y="698" type="line"/>
      <point x="537" y="0" type="line"/>
      <point x="599" y="0" type="line"/>
      <point x="599" y="633" type="line" smooth="yes"/>
      <point x="599" y="662"/>
      <point x="626" y="674"/>
      <point x="661" y="674" type="curve" smooth="yes"/>
      <point x="689" y="674" type="line"/>
      <point x="689" y="710" type="line"/>
      <point x="494" y="710" type="line"/>
      <point x="494" y="674" type="line"/>
      <point x="509" y="674" type="line" smooth="yes"/>
      <point x="542" y="674"/>
      <point x="561" y="668"/>
      <point x="561" y="661" type="curve" smooth="yes"/>
      <point x="561" y="35" type="line"/>
      <point x="572" y="18" type="line"/>
      <point x="241" y="710" type="line"/>
      <point x="79" y="710" type="line"/>
      <point x="79" y="674" type="line"/>
      <point x="107" y="674" type="line" smooth="yes"/>
      <point x="142" y="674"/>
      <point x="168" y="667"/>
      <point x="168" y="638" type="curve" smooth="yes"/>
      <point x="168" y="77" type="line" smooth="yes"/>
      <point x="168" y="48"/>
      <point x="142" y="36"/>
      <point x="107" y="36" type="curve" smooth="yes"/>
      <point x="79" y="36" type="line"/>
      <point x="79" y="0" type="line"/>
      <point x="276" y="0" type="line"/>
      <point x="276" y="36" type="line"/>
      <point x="261" y="36" type="line" smooth="yes"/>
      <point x="229" y="36"/>
      <point x="206" y="42"/>
      <point x="206" y="49" type="curve" smooth="yes"/>
      <point x="206" y="696" type="line"/>
    </contour>
    <contour>
      <point x="182" y="489" type="line"/>
      <point x="50" y="489" type="line"/>
      <point x="50" y="455" type="line"/>
      <point x="180" y="455" type="line"/>
    </contour>
    <contour>
      <point x="566" y="223" type="line"/>
      <point x="718" y="223" type="line"/>
      <point x="718" y="258" type="line"/>
      <point x="568" y="258" type="line"/>
    </contour>
    <contour>
      <point x="50" y="223" type="line"/>
      <point x="459" y="223" type="line"/>
      <point x="459" y="250" type="line"/>
      <point x="184" y="253" type="line"/>
      <point x="184" y="258" type="line"/>
      <point x="50" y="258" type="line"/>
    </contour>
    <contour>
      <point x="718" y="455" type="line"/>
      <point x="718" y="489" type="line"/>
      <point x="339" y="489" type="line"/>
      <point x="338" y="462" type="line"/>
      <point x="581" y="460" type="line"/>
      <point x="580" y="455" type="line"/>
    </contour>
  </outline>
</glyph>
<glyph name="nine.linprop" format="2">
  <advance width="612"/>
  <outline>
    <contour>
      <point x="95" y="26" type="line"/>
      <point x="357" y="47"/>
      <point x="498" y="164"/>
      <point x="498" y="430" type="curve" smooth="yes"/>
      <point x="498" y="620"/>
      <point x="429" y="695"/>
      <point x="294" y="695" type="curve" smooth="yes"/>
      <point x="155" y="695"/>
      <point x="101" y="599"/>
      <point x="101" y="487" type="curve" smooth="yes"/>
      <point x="101" y="392"/>
      <point x="132" y="305"/>
      <point x="259" y="305" type="curve" smooth="yes"/>
      <point x="376" y="305"/>
      <point x="423" y="354"/>
      <point x="520" y="508" type="curve"/>
      <point x="519" y="470" type="line"/>
      <point x="449" y="324"/>
      <point x="374" y="264"/>
      <point x="262" y="264" type="curve" smooth="yes"/>
      <point x="122" y="264"/>
      <point x="47" y="347"/>
      <point x="47" y="487" type="curve" smooth="yes"/>
      <point x="47" y="630"/>
      <point x="136" y="735"/>
      <point x="296" y="735" type="curve" smooth="yes"/>
      <point x="452" y="735"/>
      <point x="549" y="649"/>
      <point x="549" y="430" type="curve" smooth="yes"/>
      <point x="549" y="155"/>
      <point x="400" y="13"/>
      <point x="105" y="-15" type="curve"/>
    </contour>
  </outline>
</glyph>
<glyph name="one.lintab" format="2">
  <advance width="594"/>
  <outline>
    <contour>
      <point x="363" y="72" type="curve" smooth="yes"/>
      <point x="363" y="710" type="line"/>
      <point x="322" y="710" type="line"/>
      <point x="295" y="623"/>
      <point x="237" y="600"/>
      <point x="108" y="597" type="curve"/>
      <point x="108" y="555" type="line"/>
      <point x="229" y="555"/>
      <point x="312" y="594"/>
      <point x="328" y="665" type="curve"/>
      <point x="314" y="654" type="line"/>
      <point x="314" y="72" type="line" smooth="yes"/>
      <point x="314" y="43"/>
      <point x="272" y="36"/>
      <point x="191" y="36" type="curve" smooth="yes"/>
      <point x="125" y="36" type="line"/>
      <point x="125" y="0" type="line"/>
      <point x="537" y="0" type="line"/>
      <point x="537" y="36" type="line"/>
      <point x="496" y="36" type="line"/>
      <point x="409" y="36"/>
      <point x="363" y="43"/>
    </contour>
  </outline>
</glyph>
<glyph name="rupeeIndian" format="2">
  <advance width="593"/>
  <outline>
    <contour>
      <point x="60" y="508" type="line"/>
      <point x="60" y="471" type="line"/>
      <point x="565" y="471" type="line"/>
      <point x="565" y="508" type="line"/>
    </contour>
    <contour>
      <point x="117" y="268" type="line"/>
      <point x="138" y="268" type="line" smooth="yes"/>
      <point x="323" y="268"/>
      <point x="421" y="347"/>
      <point x="421" y="487" type="curve" smooth="yes"/>
      <point x="421" y="584"/>
      <point x="362" y="672"/>
      <point x="232" y="684" type="curve"/>
      <point x="189" y="674" type="line"/>
      <point x="565" y="674" type="line"/>
      <point x="565" y="710" type="line"/>
      <point x="60" y="710" type="line"/>
      <point x="60" y="668" type="line"/>
      <point x="181" y="668" type="line" smooth="yes"/>
      <point x="311" y="668"/>
      <point x="373" y="591"/>
      <point x="373" y="487" type="curve" smooth="yes"/>
      <point x="373" y="376"/>
      <point x="313" y="295"/>
      <point x="147" y="295" type="curve" smooth="yes"/>
      <point x="71" y="295" type="line"/>
      <point x="71" y="273" type="line"/>
      <point x="395" y="0" type="line"/>
      <point x="495" y="0" type="line"/>
      <point x="495" y="36" type="line"/>
      <point x="468" y="36" type="line" smooth="yes"/>
      <point x="429" y="36"/>
      <point x="412" y="45"/>
      <point x="389" y="64" type="curve" smooth="yes"/>
      <point x="126" y="285" type="line"/>
    </contour>
  </outline>
</glyph>
<glyph name="seven.midprop" format="2">
  <advance width="600"/>
  <outline>
    <contour>
      <point x="249" y="630" type="line" smooth="yes"/>
      <point x="158" y="630"/>
      <point x="119" y="623"/>
      <point x="117" y="587" type="curve" smooth="yes"/>
      <point x="111" y="466" type="line"/>
      <point x="64" y="466" type="line"/>
      <point x="64" y="667" type="line"/>
      <point x="558" y="667" type="line"/>
      <point x="558" y="624" type="line"/>
      <point x="424" y="473"/>
      <point x="305" y="255"/>
      <point x="295" y="-46" type="curve"/>
      <point x="234" y="-46" type="line"/>
      <point x="252" y="278"/>
      <point x="411" y="500"/>
      <point x="535" y="649" type="curve"/>
      <point x="540" y="630" type="line"/>
    </contour>
  </outline>
</glyph>
<glyph name="slash.uc" format="2">
  <advance width="472"/>
  <outline>
    <contour>
      <point x="423" y="760" type="line"/>
      <point x="23" y="-60" type="line"/>
      <point x="73" y="-60" type="line"/>
      <point x="472" y="760" type="line"/>
    </contour>
  </outline>
</glyph>
<glyph name="three.linprop" format="2">
  <advance width="599"/>
  <outline>
    <contour>
      <point x="325" y="379" type="line"/>
      <point x="483" y="365"/>
      <point x="545" y="303"/>
      <point x="545" y="201" type="curve" smooth="yes"/>
      <point x="545" y="54"/>
      <point x="437" y="-11"/>
      <point x="294" y="-11" type="curve" smooth="yes"/>
      <point x="152" y="-11"/>
      <point x="72" y="50"/>
      <point x="36" y="148" type="curve"/>
      <point x="80" y="167" type="line"/>
      <point x="108" y="100"/>
      <point x="163" y="30"/>
      <point x="294" y="30" type="curve" smooth="yes"/>
      <point x="413" y="30"/>
      <point x="487" y="77"/>
      <point x="487" y="199" type="curve" smooth="yes"/>
      <point x="487" y="305"/>
      <point x="423" y="361"/>
      <point x="270" y="361" type="curve" smooth="yes"/>
      <point x="186" y="361" type="line"/>
      <point x="186" y="399" type="line"/>
      <point x="256" y="399" type="line" smooth="yes"/>
      <point x="374" y="399"/>
      <point x="463" y="445"/>
      <point x="463" y="561" type="curve" smooth="yes"/>
      <point x="463" y="661"/>
      <point x="402" y="694"/>
      <point x="303" y="694" type="curve" smooth="yes"/>
      <point x="196" y="694"/>
      <point x="142" y="663"/>
      <point x="123" y="648" type="curve"/>
      <point x="110" y="653"/>
      <point x="131" y="680"/>
      <point x="160" y="684" type="curve"/>
      <point x="160" y="531" type="line"/>
      <point x="103" y="531" type="line"/>
      <point x="103" y="683" type="line"/>
      <point x="131" y="701"/>
      <point x="199" y="735"/>
      <point x="301" y="735" type="curve" smooth="yes"/>
      <point x="441" y="735"/>
      <point x="516" y="687"/>
      <point x="516" y="573" type="curve" smooth="yes"/>
      <point x="516" y="467"/>
      <point x="437" y="404"/>
      <point x="327" y="385" type="curve"/>
      <point x="327" y="396" type="line"/>
      <point x="327" y="362" type="line"/>
    </contour>
  </outline>
</glyph>
<glyph name="three.oldprop" format="2">
  <advance width="599"/>
  <outline>
    <contour>
      <point x="293" y="-50" type="curve" smooth="yes"/>
      <point x="412" y="-50"/>
      <point x="486" y="-3"/>
      <point x="486" y="118" type="curve" smooth="yes"/>
      <point x="486" y="223"/>
      <point x="421" y="278"/>
      <point x="269" y="278" type="curve" smooth="yes"/>
      <point x="185" y="278" type="line"/>
      <point x="185" y="316" type="line"/>
      <point x="255" y="316" type="line" smooth="yes"/>
      <point x="373" y="316"/>
      <point x="462" y="362"/>
      <point x="462" y="476" type="curve" smooth="yes"/>
      <point x="462" y="575"/>
      <point x="401" y="608"/>
      <point x="301" y="608" type="curve" smooth="yes"/>
      <point x="195" y="608"/>
      <point x="141" y="577"/>
      <point x="122" y="562" type="curve"/>
      <point x="109" y="567"/>
      <point x="129" y="594"/>
      <point x="159" y="598" type="curve"/>
      <point x="159" y="445" type="line"/>
      <point x="102" y="445" type="line"/>
      <point x="102" y="597" type="line"/>
      <point x="130" y="615"/>
      <point x="198" y="649"/>
      <point x="300" y="649" type="curve" smooth="yes"/>
      <point x="440" y="649"/>
      <point x="515" y="600"/>
      <point x="515" y="487" type="curve" smooth="yes"/>
      <point x="515" y="382"/>
      <point x="435" y="321"/>
      <point x="326" y="302" type="curve"/>
      <point x="325" y="313" type="line"/>
      <point x="325" y="281" type="line"/>
      <point x="324" y="296" type="line"/>
      <point x="482" y="282"/>
      <point x="543" y="221"/>
      <point x="543" y="120" type="curve" smooth="yes"/>
      <point x="543" y="-26"/>
      <point x="435" y="-90"/>
      <point x="293" y="-90" type="curve" smooth="yes"/>
      <point x="151" y="-90"/>
      <point x="71" y="-29"/>
      <point x="35" y="69" type="curve"/>
      <point x="79" y="88" type="line"/>
      <point x="107" y="21"/>
      <point x="162" y="-50"/>
    </contour>
  </outline>
</glyph>
<glyph name="three.oldtab" format="2">
  <advance width="594"/>
  <outline>
    <contour>
      <point x="328" y="290" type="line"/>
      <point x="477" y="272"/>
      <point x="533" y="213"/>
      <point x="533" y="117" type="curve" smooth="yes"/>
      <point x="533" y="-26"/>
      <point x="435" y="-90"/>
      <point x="297" y="-90" type="curve" smooth="yes"/>
      <point x="162" y="-90"/>
      <point x="88" y="-28"/>
      <point x="52" y="70" type="curve"/>
      <point x="95" y="90" type="line"/>
      <point x="123" y="21"/>
      <point x="174" y="-50"/>
      <point x="297" y="-50" type="curve" smooth="yes"/>
      <point x="412" y="-50"/>
      <point x="475" y="-5"/>
      <point x="475" y="115" type="curve" smooth="yes"/>
      <point x="475" y="219"/>
      <point x="416" y="272"/>
      <point x="271" y="272" type="curve" smooth="yes"/>
      <point x="182" y="272" type="line"/>
      <point x="182" y="310" type="line"/>
      <point x="257" y="310" type="line" smooth="yes"/>
      <point x="371" y="310"/>
      <point x="453" y="360"/>
      <point x="453" y="471" type="curve" smooth="yes"/>
      <point x="453" y="570"/>
      <point x="393" y="608"/>
      <point x="295" y="608" type="curve" smooth="yes"/>
      <point x="191" y="608"/>
      <point x="139" y="577"/>
      <point x="119" y="562" type="curve"/>
      <point x="107" y="567"/>
      <point x="127" y="594"/>
      <point x="157" y="598" type="curve"/>
      <point x="157" y="443" type="line"/>
      <point x="100" y="443" type="line"/>
      <point x="100" y="597" type="line"/>
      <point x="128" y="615"/>
      <point x="194" y="649"/>
      <point x="295" y="649" type="curve" smooth="yes"/>
      <point x="432" y="649"/>
      <point x="506" y="595"/>
      <point x="506" y="482" type="curve" smooth="yes"/>
      <point x="506" y="391"/>
      <point x="435" y="328"/>
      <point x="330" y="298" type="curve"/>
      <point x="330" y="309" type="line"/>
      <point x="330" y="276" type="line"/>
    </contour>
  </outline>
</glyph>
<glyph name="uni20B8.proportional" format="2">
  <advance width="663"/>
  <outline>
    <contour>
      <point x="64" y="728" type="line"/>
      <point x="64" y="692" type="line"/>
      <point x="599" y="692" type="line"/>
      <point x="599" y="728" type="line"/>
    </contour>
    <contour>
      <point x="64" y="540" type="line"/>
      <point x="64" y="329" type="line"/>
      <point x="100" y="329" type="line"/>
      <point x="114" y="451" type="line" smooth="yes"/>
      <point x="118" y="487"/>
      <point x="155" y="504"/>
      <point x="245" y="504" type="curve" smooth="yes"/>
      <point x="308" y="504" type="line"/>
      <point x="308" y="72" type="line" smooth="yes"/>
      <point x="308" y="43"/>
      <point x="265" y="36"/>
      <point x="213" y="36" type="curve" smooth="yes"/>
      <point x="192" y="36" type="line"/>
      <point x="192" y="0" type="line"/>
      <point x="472" y="0" type="line"/>
      <point x="472" y="36" type="line"/>
      <point x="451" y="36" type="line" smooth="yes"/>
      <point x="400" y="36"/>
      <point x="356" y="43"/>
      <point x="356" y="72" type="curve" smooth="yes"/>
      <point x="356" y="504" type="line"/>
      <point x="419" y="504" type="line" smooth="yes"/>
      <point x="509" y="504"/>
      <point x="545" y="487"/>
      <point x="549" y="451" type="curve" smooth="yes"/>
      <point x="563" y="329" type="line"/>
      <point x="599" y="329" type="line"/>
      <point x="599" y="540" type="line"/>
    </contour>
  </outline>
</glyph>
<glyph name="whiteuppointingtriangle" format="2">
  <advance width="684"/>
  <outline>
    <contour>
      <point x="636" y="91" type="line"/>
      <point x="352" y="464" type="line"/>
      <point x="69" y="91" type="line"/>
    </contour>
    <contour>
      <point x="166" y="125" type="line"/>
      <point x="358" y="380" type="line"/>
      <point x="347" y="380" type="line"/>
      <point x="538" y="125" type="line"/>
      <point x="546" y="141" type="line"/>
      <point x="159" y="141" type="line"/>
    </contour>
  </outline>
</glyph>
<glyph name="yen.proportional" format="2">
  <advance width="671"/>
  <outline>
    <contour>
      <point x="92" y="364" type="line"/>
      <point x="92" y="329" type="line"/>
      <point x="588" y="329" type="line"/>
      <point x="588" y="364" type="line"/>
    </contour>
    <contour>
      <point x="92" y="211" type="line"/>
      <point x="92" y="176" type="line"/>
      <point x="588" y="176" type="line"/>
      <point x="588" y="211" type="line"/>
    </contour>
    <contour>
      <point x="317" y="375" type="line"/>
      <point x="317" y="72" type="line" smooth="yes"/>
      <point x="317" y="43"/>
      <point x="277" y="36"/>
      <point x="223" y="36" type="curve" smooth="yes"/>
      <point x="199" y="36" type="line"/>
      <point x="199" y="0" type="line"/>
      <point x="481" y="0" type="line"/>
      <point x="481" y="36" type="line"/>
      <point x="457" y="36" type="line" smooth="yes"/>
      <point x="403" y="36"/>
      <point x="363" y="43"/>
      <point x="363" y="72" type="curve" smooth="yes"/>
      <point x="363" y="375" type="line"/>
    </contour>
    <contour>
      <point x="358" y="325" type="line"/>
      <point x="552" y="627" type="line" smooth="yes"/>
      <point x="573" y="660"/>
      <point x="591" y="674"/>
      <point x="619" y="674" type="curve" smooth="yes"/>
      <point x="627" y="674" type="line"/>
      <point x="627" y="710" type="line"/>
      <point x="449" y="710" type="line"/>
      <point x="449" y="674" type="line"/>
      <point x="455" y="674" type="line" smooth="yes"/>
      <point x="487" y="674"/>
      <point x="519" y="664"/>
      <point x="519" y="651" type="curve"/>
      <point x="338" y="365" type="line"/>
      <point x="347" y="374" type="line"/>
      <point x="158" y="663" type="line"/>
      <point x="158" y="670"/>
      <point x="186" y="674"/>
      <point x="217" y="674" type="curve" smooth="yes"/>
      <point x="230" y="674" type="line"/>
      <point x="230" y="710" type="line"/>
      <point x="45" y="710" type="line"/>
      <point x="45" y="674" type="line"/>
      <point x="52" y="674" type="line" smooth="yes"/>
      <point x="82" y="674"/>
      <point x="97" y="669"/>
      <point x="115" y="640" type="curve" smooth="yes"/>
      <point x="322" y="326" type="line"/>
    </contour>
  </outline>
</glyph>
